<svg width="967" height="408" viewBox="0 0 967 408" fill="none" xmlns="http://www.w3.org/2000/svg">
<path d="M534.444 108.595C534.174 109.045 533.874 109.39 533.544 109.63C533.244 109.84 532.869 109.945 532.419 109.945C531.909 109.945 531.309 109.69 530.619 109.18C529.929 108.67 529.059 108.115 528.009 107.515C526.989 106.885 525.744 106.315 524.274 105.805C522.834 105.295 521.079 105.04 519.009 105.04C517.059 105.04 515.334 105.31 513.834 105.85C512.364 106.36 511.119 107.065 510.099 107.965C509.109 108.865 508.359 109.93 507.849 111.16C507.339 112.36 507.084 113.665 507.084 115.075C507.084 116.875 507.519 118.375 508.389 119.575C509.289 120.745 510.459 121.75 511.899 122.59C513.369 123.43 515.019 124.165 516.849 124.795C518.709 125.395 520.599 126.025 522.519 126.685C524.469 127.345 526.359 128.095 528.189 128.935C530.049 129.745 531.699 130.78 533.139 132.04C534.609 133.3 535.779 134.845 536.649 136.675C537.549 138.505 537.999 140.755 537.999 143.425C537.999 146.245 537.519 148.9 536.559 151.39C535.599 153.85 534.189 155.995 532.329 157.825C530.499 159.655 528.234 161.095 525.534 162.145C522.864 163.195 519.819 163.72 516.399 163.72C512.199 163.72 508.389 162.97 504.969 161.47C501.549 159.94 498.624 157.885 496.194 155.305L498.714 151.165C498.954 150.835 499.239 150.565 499.569 150.355C499.929 150.115 500.319 149.995 500.739 149.995C501.129 149.995 501.564 150.16 502.044 150.49C502.554 150.79 503.124 151.18 503.754 151.66C504.384 152.14 505.104 152.665 505.914 153.235C506.724 153.805 507.639 154.33 508.659 154.81C509.709 155.29 510.894 155.695 512.214 156.025C513.534 156.325 515.019 156.475 516.669 156.475C518.739 156.475 520.584 156.19 522.204 155.62C523.824 155.05 525.189 154.255 526.299 153.235C527.439 152.185 528.309 150.94 528.909 149.5C529.509 148.06 529.809 146.455 529.809 144.685C529.809 142.735 529.359 141.145 528.459 139.915C527.589 138.655 526.434 137.605 524.994 136.765C523.554 135.925 521.904 135.22 520.044 134.65C518.184 134.05 516.294 133.45 514.374 132.85C512.454 132.22 510.564 131.5 508.704 130.69C506.844 129.88 505.194 128.83 503.754 127.54C502.314 126.25 501.144 124.645 500.244 122.725C499.374 120.775 498.939 118.375 498.939 115.525C498.939 113.245 499.374 111.04 500.244 108.91C501.144 106.78 502.434 104.89 504.114 103.24C505.824 101.59 507.909 100.27 510.369 99.28C512.859 98.29 515.709 97.795 518.919 97.795C522.519 97.795 525.789 98.365 528.729 99.505C531.699 100.645 534.309 102.295 536.559 104.455L534.444 108.595ZM600.681 105.85H579.801V163H571.116V105.85H550.191V98.515H600.681V105.85ZM641.885 156.07C644.555 156.07 646.94 155.62 649.04 154.72C651.14 153.82 652.91 152.56 654.35 150.94C655.82 149.32 656.93 147.385 657.68 145.135C658.46 142.885 658.85 140.41 658.85 137.71V98.515H667.535V137.71C667.535 141.43 666.935 144.88 665.735 148.06C664.565 151.24 662.87 154 660.65 156.34C658.46 158.65 655.775 160.465 652.595 161.785C649.415 163.105 645.845 163.765 641.885 163.765C637.925 163.765 634.355 163.105 631.175 161.785C627.995 160.465 625.295 158.65 623.075 156.34C620.855 154 619.145 151.24 617.945 148.06C616.775 144.88 616.19 141.43 616.19 137.71V98.515H624.875V137.665C624.875 140.365 625.25 142.84 626 145.09C626.78 147.34 627.89 149.275 629.33 150.895C630.8 152.515 632.585 153.79 634.685 154.72C636.815 155.62 639.215 156.07 641.885 156.07ZM745.821 130.78C745.821 135.61 745.056 140.005 743.526 143.965C741.996 147.925 739.836 151.315 737.046 154.135C734.256 156.955 730.896 159.145 726.966 160.705C723.066 162.235 718.746 163 714.006 163H689.931V98.515H714.006C718.746 98.515 723.066 99.295 726.966 100.855C730.896 102.385 734.256 104.575 737.046 107.425C739.836 110.245 741.996 113.635 743.526 117.595C745.056 121.555 745.821 125.95 745.821 130.78ZM736.866 130.78C736.866 126.82 736.326 123.28 735.246 120.16C734.166 117.04 732.636 114.4 730.656 112.24C728.676 110.08 726.276 108.43 723.456 107.29C720.636 106.15 717.486 105.58 714.006 105.58H698.661V155.935H714.006C717.486 155.935 720.636 155.365 723.456 154.225C726.276 153.085 728.676 151.45 730.656 149.32C732.636 147.16 734.166 144.52 735.246 141.4C736.326 138.28 736.866 134.74 736.866 130.78ZM821.038 130.78C821.038 135.61 820.273 140.005 818.743 143.965C817.213 147.925 815.053 151.315 812.263 154.135C809.473 156.955 806.113 159.145 802.183 160.705C798.283 162.235 793.963 163 789.223 163H765.148V98.515H789.223C793.963 98.515 798.283 99.295 802.183 100.855C806.113 102.385 809.473 104.575 812.263 107.425C815.053 110.245 817.213 113.635 818.743 117.595C820.273 121.555 821.038 125.95 821.038 130.78ZM812.083 130.78C812.083 126.82 811.543 123.28 810.463 120.16C809.383 117.04 807.853 114.4 805.873 112.24C803.893 110.08 801.493 108.43 798.673 107.29C795.853 106.15 792.703 105.58 789.223 105.58H773.878V155.935H789.223C792.703 155.935 795.853 155.365 798.673 154.225C801.493 153.085 803.893 151.45 805.873 149.32C807.853 147.16 809.383 144.52 810.463 141.4C811.543 138.28 812.083 134.74 812.083 130.78ZM861.059 137.305V163H852.329V137.305L828.704 98.515H836.354C837.134 98.515 837.749 98.71 838.199 99.1C838.649 99.46 839.039 99.94 839.369 100.54L854.129 125.605C854.669 126.655 855.164 127.645 855.614 128.575C856.064 129.475 856.454 130.39 856.784 131.32C857.114 130.39 857.489 129.475 857.909 128.575C858.329 127.645 858.794 126.655 859.304 125.605L874.019 100.54C874.289 100.03 874.664 99.565 875.144 99.145C875.624 98.725 876.239 98.515 876.989 98.515H884.684L861.059 137.305ZM549.397 308.07C551.887 308.07 554.032 307.785 555.832 307.215C557.632 306.645 559.102 305.85 560.242 304.83C561.412 303.78 562.267 302.55 562.807 301.14C563.347 299.7 563.617 298.125 563.617 296.415C563.617 293.085 562.432 290.46 560.062 288.54C557.692 286.59 554.137 285.615 549.397 285.615H535.447V308.07H549.397ZM535.447 257.4V279.405H546.967C549.427 279.405 551.557 279.135 553.357 278.595C555.187 278.055 556.687 277.305 557.857 276.345C559.057 275.385 559.942 274.23 560.512 272.88C561.082 271.5 561.367 270 561.367 268.38C561.367 264.57 560.227 261.795 557.947 260.055C555.667 258.285 552.127 257.4 547.327 257.4H535.447ZM547.327 250.515C551.287 250.515 554.692 250.905 557.542 251.685C560.422 252.465 562.777 253.575 564.607 255.015C566.467 256.455 567.832 258.225 568.702 260.325C569.572 262.395 570.007 264.735 570.007 267.345C570.007 268.935 569.752 270.465 569.242 271.935C568.762 273.375 568.027 274.725 567.037 275.985C566.047 277.245 564.787 278.385 563.257 279.405C561.757 280.395 559.987 281.205 557.947 281.835C562.687 282.735 566.242 284.43 568.612 286.92C571.012 289.38 572.212 292.62 572.212 296.64C572.212 299.37 571.702 301.86 570.682 304.11C569.692 306.36 568.222 308.295 566.272 309.915C564.352 311.535 561.982 312.795 559.162 313.695C556.342 314.565 553.132 315 549.532 315H526.762V250.515H547.327ZM616.581 308.07C619.251 308.07 621.636 307.62 623.736 306.72C625.836 305.82 627.606 304.56 629.046 302.94C630.516 301.32 631.626 299.385 632.376 297.135C633.156 294.885 633.546 292.41 633.546 289.71V250.515H642.231V289.71C642.231 293.43 641.631 296.88 640.431 300.06C639.261 303.24 637.566 306 635.346 308.34C633.156 310.65 630.471 312.465 627.291 313.785C624.111 315.105 620.541 315.765 616.581 315.765C612.621 315.765 609.051 315.105 605.871 313.785C602.691 312.465 599.991 310.65 597.771 308.34C595.551 306 593.841 303.24 592.641 300.06C591.471 296.88 590.886 293.43 590.886 289.71V250.515H599.571V289.665C599.571 292.365 599.946 294.84 600.696 297.09C601.476 299.34 602.586 301.275 604.026 302.895C605.496 304.515 607.281 305.79 609.381 306.72C611.511 307.62 613.911 308.07 616.581 308.07ZM720.518 282.78C720.518 287.61 719.753 292.005 718.223 295.965C716.693 299.925 714.533 303.315 711.743 306.135C708.953 308.955 705.593 311.145 701.663 312.705C697.763 314.235 693.443 315 688.703 315H664.628V250.515H688.703C693.443 250.515 697.763 251.295 701.663 252.855C705.593 254.385 708.953 256.575 711.743 259.425C714.533 262.245 716.693 265.635 718.223 269.595C719.753 273.555 720.518 277.95 720.518 282.78ZM711.563 282.78C711.563 278.82 711.023 275.28 709.943 272.16C708.863 269.04 707.333 266.4 705.353 264.24C703.373 262.08 700.973 260.43 698.153 259.29C695.333 258.15 692.183 257.58 688.703 257.58H673.358V307.935H688.703C692.183 307.935 695.333 307.365 698.153 306.225C700.973 305.085 703.373 303.45 705.353 301.32C707.333 299.16 708.863 296.52 709.943 293.4C711.023 290.28 711.563 286.74 711.563 282.78ZM795.734 282.78C795.734 287.61 794.969 292.005 793.439 295.965C791.909 299.925 789.749 303.315 786.959 306.135C784.169 308.955 780.809 311.145 776.879 312.705C772.979 314.235 768.659 315 763.919 315H739.844V250.515H763.919C768.659 250.515 772.979 251.295 776.879 252.855C780.809 254.385 784.169 256.575 786.959 259.425C789.749 262.245 791.909 265.635 793.439 269.595C794.969 273.555 795.734 277.95 795.734 282.78ZM786.779 282.78C786.779 278.82 786.239 275.28 785.159 272.16C784.079 269.04 782.549 266.4 780.569 264.24C778.589 262.08 776.189 260.43 773.369 259.29C770.549 258.15 767.399 257.58 763.919 257.58H748.574V307.935H763.919C767.399 307.935 770.549 307.365 773.369 306.225C776.189 305.085 778.589 303.45 780.569 301.32C782.549 299.16 784.079 296.52 785.159 293.4C786.239 290.28 786.779 286.74 786.779 282.78ZM835.756 289.305V315H827.026V289.305L803.401 250.515H811.051C811.831 250.515 812.446 250.71 812.896 251.1C813.346 251.46 813.736 251.94 814.066 252.54L828.826 277.605C829.366 278.655 829.861 279.645 830.311 280.575C830.761 281.475 831.151 282.39 831.481 283.32C831.811 282.39 832.186 281.475 832.606 280.575C833.026 279.645 833.491 278.655 834.001 277.605L848.716 252.54C848.986 252.03 849.361 251.565 849.841 251.145C850.321 250.725 850.936 250.515 851.686 250.515H859.381L835.756 289.305Z" fill="black"/>
<path d="M534.444 108.595L536.159 109.624L536.194 109.566L536.225 109.505L534.444 108.595ZM533.544 109.63L534.691 111.268L534.705 111.258L534.72 111.247L533.544 109.63ZM530.619 109.18L531.807 107.572L531.807 107.572L530.619 109.18ZM528.009 107.515L526.958 109.217L526.987 109.235L527.016 109.251L528.009 107.515ZM524.274 105.805L523.606 107.69L523.618 107.695L524.274 105.805ZM513.834 105.85L514.489 107.74L514.5 107.736L514.511 107.732L513.834 105.85ZM510.099 107.965L508.775 106.465L508.764 106.475L508.753 106.485L510.099 107.965ZM507.849 111.16L509.689 111.942L509.693 111.934L509.696 111.926L507.849 111.16ZM508.389 119.575L506.769 120.749L506.786 120.772L506.803 120.794L508.389 119.575ZM511.899 122.59L510.891 124.318L510.899 124.322L510.906 124.326L511.899 122.59ZM516.849 124.795L516.198 126.686L516.216 126.692L516.235 126.698L516.849 124.795ZM522.519 126.685L521.868 128.576L521.877 128.579L522.519 126.685ZM528.189 128.935L527.354 130.753L527.372 130.761L527.39 130.769L528.189 128.935ZM533.139 132.04L531.822 133.545L531.829 133.552L531.837 133.559L533.139 132.04ZM536.649 136.675L534.842 137.534L534.848 137.546L534.854 137.558L536.649 136.675ZM536.559 151.39L538.422 152.117L538.425 152.109L536.559 151.39ZM532.329 157.825L530.926 156.399L530.92 156.405L530.914 156.411L532.329 157.825ZM525.534 162.145L524.809 160.281L524.802 160.284L525.534 162.145ZM504.969 161.47L504.152 163.296L504.159 163.299L504.165 163.302L504.969 161.47ZM496.194 155.305L494.485 154.265L493.693 155.567L494.738 156.676L496.194 155.305ZM498.714 151.165L497.096 149.989L497.048 150.055L497.005 150.125L498.714 151.165ZM499.569 150.355L500.642 152.042L500.66 152.031L500.678 152.019L499.569 150.355ZM502.044 150.49L500.911 152.138L500.969 152.178L501.03 152.214L502.044 150.49ZM503.754 151.66L502.542 153.251L502.542 153.251L503.754 151.66ZM505.914 153.235L504.763 154.871L504.763 154.871L505.914 153.235ZM508.659 154.81L507.807 156.62L507.817 156.624L507.827 156.629L508.659 154.81ZM512.214 156.025L511.729 157.965L511.749 157.971L511.77 157.975L512.214 156.025ZM522.204 155.62L522.867 157.507L522.867 157.507L522.204 155.62ZM526.299 153.235L527.652 154.708L527.654 154.706L526.299 153.235ZM528.459 139.915L526.813 141.051L526.828 141.074L526.845 141.096L528.459 139.915ZM520.044 134.65L519.43 136.553L519.444 136.558L519.458 136.562L520.044 134.65ZM514.374 132.85L513.75 134.75L513.764 134.755L513.777 134.759L514.374 132.85ZM503.754 127.54L505.088 126.05L505.088 126.05L503.754 127.54ZM500.244 122.725L498.417 123.54L498.425 123.557L498.433 123.574L500.244 122.725ZM500.244 108.91L498.401 108.132L498.397 108.143L498.392 108.154L500.244 108.91ZM504.114 103.24L502.725 101.801L502.719 101.807L502.712 101.813L504.114 103.24ZM510.369 99.28L509.63 97.4215L509.622 97.4246L510.369 99.28ZM528.729 99.505L528.006 101.37L528.012 101.372L528.729 99.505ZM536.559 104.455L538.34 105.365L539.016 104.041L537.944 103.012L536.559 104.455ZM532.729 107.566C532.559 107.849 532.428 107.969 532.367 108.013L534.72 111.247C535.32 110.811 535.788 110.241 536.159 109.624L532.729 107.566ZM532.397 107.992C532.418 107.976 532.44 107.964 532.459 107.955C532.478 107.947 532.492 107.942 532.498 107.94C532.511 107.937 532.489 107.945 532.419 107.945V111.945C533.184 111.945 533.984 111.763 534.691 111.268L532.397 107.992ZM532.419 107.945C532.496 107.945 532.487 107.964 532.368 107.913C532.25 107.863 532.064 107.761 531.807 107.572L529.43 110.788C530.251 111.396 531.276 111.945 532.419 111.945V107.945ZM531.807 107.572C531.035 107.001 530.094 106.403 529.001 105.779L527.016 109.251C528.024 109.827 528.822 110.339 529.43 110.788L531.807 107.572ZM529.06 105.813C527.885 105.088 526.499 104.46 524.929 103.915L523.618 107.695C524.988 108.17 526.093 108.682 526.958 109.217L529.06 105.813ZM524.941 103.92C523.226 103.312 521.231 103.04 519.009 103.04V107.04C520.927 107.04 522.441 107.278 523.606 107.69L524.941 103.92ZM519.009 103.04C516.877 103.04 514.916 103.335 513.156 103.968L514.511 107.732C515.751 107.285 517.24 107.04 519.009 107.04V103.04ZM513.178 103.96C511.497 104.544 510.017 105.37 508.775 106.465L511.422 109.465C512.221 108.76 513.23 108.176 514.489 107.74L513.178 103.96ZM508.753 106.485C507.546 107.582 506.624 108.891 506.001 110.394L509.696 111.926C510.093 110.969 510.671 110.148 511.444 109.445L508.753 106.485ZM506.008 110.378C505.385 111.845 505.084 113.418 505.084 115.075H509.084C509.084 113.912 509.293 112.875 509.689 111.942L506.008 110.378ZM505.084 115.075C505.084 117.204 505.603 119.14 506.769 120.749L510.008 118.401C509.435 117.61 509.084 116.546 509.084 115.075H505.084ZM506.803 120.794C507.88 122.194 509.256 123.364 510.891 124.318L512.906 120.862C511.661 120.136 510.697 119.296 509.974 118.356L506.803 120.794ZM510.906 124.326C512.499 125.237 514.266 126.021 516.198 126.686L517.5 122.904C515.772 122.309 514.238 121.623 512.891 120.854L510.906 124.326ZM516.235 126.698C518.082 127.294 519.96 127.92 521.868 128.576L523.169 124.794C521.237 124.13 519.335 123.496 517.463 122.892L516.235 126.698ZM521.877 128.579C523.763 129.218 525.589 129.942 527.354 130.753L529.023 127.117C527.129 126.248 525.174 125.472 523.16 124.791L521.877 128.579ZM527.39 130.769C529.073 131.501 530.546 132.429 531.822 133.545L534.456 130.535C532.852 129.131 531.024 127.989 528.987 127.101L527.39 130.769ZM531.837 133.559C533.085 134.628 534.087 135.945 534.842 137.534L538.455 135.816C537.47 133.745 536.133 131.972 534.44 130.521L531.837 133.559ZM534.854 137.558C535.584 139.042 535.999 140.97 535.999 143.425H539.999C539.999 140.54 539.513 137.968 538.443 135.792L534.854 137.558ZM535.999 143.425C535.999 146.013 535.559 148.423 534.693 150.671L538.425 152.109C539.478 149.377 539.999 146.477 539.999 143.425H535.999ZM534.695 150.663C533.837 152.863 532.582 154.77 530.926 156.399L533.731 159.251C535.795 157.22 537.361 154.837 538.422 152.117L534.695 150.663ZM530.914 156.411C529.303 158.023 527.281 159.319 524.809 160.281L526.259 164.009C529.186 162.871 531.695 161.287 533.743 159.239L530.914 156.411ZM524.802 160.284C522.405 161.226 519.615 161.72 516.399 161.72V165.72C520.022 165.72 523.322 165.164 526.266 164.006L524.802 160.284ZM516.399 161.72C512.441 161.72 508.909 161.014 505.772 159.638L504.165 163.302C507.868 164.926 511.957 165.72 516.399 165.72V161.72ZM505.785 159.644C502.592 158.216 499.888 156.311 497.65 153.934L494.738 156.676C497.359 159.459 500.505 161.664 504.152 163.296L505.785 159.644ZM497.902 156.345L500.422 152.205L497.005 150.125L494.485 154.265L497.902 156.345ZM500.331 152.341C500.43 152.205 500.533 152.112 500.642 152.042L498.495 148.668C497.944 149.018 497.477 149.465 497.096 149.989L500.331 152.341ZM500.678 152.019C500.693 152.009 500.704 152.003 500.71 152.001C500.716 151.998 500.719 151.997 500.719 151.997C500.72 151.996 500.721 151.996 500.722 151.996C500.724 151.996 500.729 151.995 500.739 151.995V147.995C499.911 147.995 499.137 148.239 498.459 148.691L500.678 152.019ZM500.739 151.995C500.649 151.995 500.615 151.976 500.648 151.989C500.684 152.002 500.771 152.042 500.911 152.138L503.177 148.842C502.518 148.389 501.688 147.995 500.739 147.995V151.995ZM501.03 152.214C501.453 152.463 501.955 152.804 502.542 153.251L504.966 150.069C504.292 149.556 503.655 149.117 503.058 148.766L501.03 152.214ZM502.542 153.251C503.196 153.749 503.937 154.289 504.763 154.871L507.065 151.599C506.27 151.041 505.571 150.531 504.966 150.069L502.542 153.251ZM504.763 154.871C505.679 155.516 506.696 156.097 507.807 156.62L509.51 153C508.581 152.563 507.768 152.094 507.065 151.599L504.763 154.871ZM507.827 156.629C509.006 157.168 510.31 157.611 511.729 157.965L512.699 154.085C511.477 153.779 510.411 153.412 509.49 152.991L507.827 156.629ZM511.77 157.975C513.263 158.315 514.901 158.475 516.669 158.475V154.475C515.137 154.475 513.804 154.335 512.657 154.075L511.77 157.975ZM516.669 158.475C518.92 158.475 520.995 158.165 522.867 157.507L521.54 153.733C520.172 154.215 518.558 154.475 516.669 154.475V158.475ZM522.867 157.507C524.708 156.859 526.317 155.935 527.652 154.708L524.945 151.762C524.061 152.575 522.94 153.241 521.54 153.733L522.867 157.507ZM527.654 154.706C529.008 153.459 530.044 151.974 530.755 150.269L527.062 148.731C526.573 149.906 525.87 150.911 524.944 151.764L527.654 154.706ZM530.755 150.269C531.469 148.555 531.809 146.684 531.809 144.685H527.809C527.809 146.226 527.548 147.565 527.062 148.731L530.755 150.269ZM531.809 144.685C531.809 142.43 531.286 140.392 530.073 138.734L526.845 141.096C527.432 141.898 527.809 143.04 527.809 144.685H531.809ZM530.104 138.779C529.053 137.256 527.672 136.012 526.001 135.037L523.986 138.493C525.195 139.198 526.124 140.054 526.813 141.051L530.104 138.779ZM526.001 135.037C524.408 134.108 522.613 133.346 520.63 132.738L519.458 136.562C521.194 137.094 522.699 137.742 523.986 138.493L526.001 135.037ZM520.658 132.747C518.792 132.145 516.896 131.543 514.97 130.941L513.777 134.759C515.691 135.357 517.576 135.955 519.43 136.553L520.658 132.747ZM514.997 130.95C513.137 130.339 511.305 129.641 509.502 128.856L507.905 132.524C509.822 133.359 511.771 134.101 513.75 134.75L514.997 130.95ZM509.502 128.856C507.828 128.127 506.361 127.191 505.088 126.05L502.419 129.03C504.026 130.469 505.859 131.633 507.905 132.524L509.502 128.856ZM505.088 126.05C503.867 124.956 502.852 123.576 502.055 121.876L498.433 123.574C499.436 125.714 500.76 127.544 502.419 129.03L505.088 126.05ZM502.07 121.91C501.346 120.287 500.939 118.183 500.939 115.525H496.939C496.939 118.567 497.401 121.263 498.417 123.54L502.07 121.91ZM500.939 115.525C500.939 113.507 501.322 111.558 502.095 109.666L498.392 108.154C497.425 110.522 496.939 112.983 496.939 115.525H500.939ZM502.086 109.688C502.881 107.806 504.02 106.135 505.515 104.667L502.712 101.813C500.847 103.645 499.406 105.754 498.401 108.132L502.086 109.688ZM505.502 104.679C507.007 103.228 508.866 102.04 511.115 101.135L509.622 97.4246C506.951 98.4996 504.64 99.9524 502.725 101.801L505.502 104.679ZM511.108 101.138C513.321 100.258 515.913 99.795 518.919 99.795V95.795C515.505 95.795 512.396 96.3215 509.63 97.4215L511.108 101.138ZM518.919 99.795C522.306 99.795 525.326 100.331 528.006 101.37L529.452 97.6403C526.251 96.3991 522.731 95.795 518.919 95.795V99.795ZM528.012 101.372C530.738 102.419 533.12 103.926 535.174 105.898L537.944 103.012C535.498 100.664 532.659 98.8714 529.445 97.6378L528.012 101.372ZM534.778 103.545L532.663 107.685L536.225 109.505L538.34 105.365L534.778 103.545ZM600.681 105.85V107.85H602.681V105.85H600.681ZM579.801 105.85V103.85H577.801V105.85H579.801ZM579.801 163V165H581.801V163H579.801ZM571.116 163H569.116V165H571.116V163ZM571.116 105.85H573.116V103.85H571.116V105.85ZM550.191 105.85H548.191V107.85H550.191V105.85ZM550.191 98.515V96.515H548.191V98.515H550.191ZM600.681 98.515H602.681V96.515H600.681V98.515ZM600.681 103.85H579.801V107.85H600.681V103.85ZM577.801 105.85V163H581.801V105.85H577.801ZM579.801 161H571.116V165H579.801V161ZM573.116 163V105.85H569.116V163H573.116ZM571.116 103.85H550.191V107.85H571.116V103.85ZM552.191 105.85V98.515H548.191V105.85H552.191ZM550.191 100.515H600.681V96.515H550.191V100.515ZM598.681 98.515V105.85H602.681V98.515H598.681ZM654.35 150.94L652.869 149.596L652.862 149.604L652.855 149.611L654.35 150.94ZM657.68 145.135L655.79 144.48L655.786 144.491L655.782 144.503L657.68 145.135ZM658.85 98.515V96.515H656.85V98.515H658.85ZM667.535 98.515H669.535V96.515H667.535V98.515ZM665.735 148.06L663.863 147.354L663.861 147.362L663.858 147.369L665.735 148.06ZM660.65 156.34L659.199 154.963L659.198 154.964L660.65 156.34ZM623.075 156.34L621.624 157.717L621.633 157.726L623.075 156.34ZM617.945 148.06L616.068 148.751L616.071 148.758L616.073 148.766L617.945 148.06ZM616.19 98.515V96.515H614.19V98.515H616.19ZM624.875 98.515H626.875V96.515H624.875V98.515ZM626 145.09L624.102 145.722L624.106 145.734L624.11 145.745L626 145.09ZM629.33 150.895L627.835 152.224L627.842 152.231L627.849 152.239L629.33 150.895ZM634.685 154.72L633.875 156.549L633.89 156.556L633.906 156.562L634.685 154.72ZM641.885 158.07C644.78 158.07 647.44 157.581 649.827 156.558L648.252 152.882C646.439 153.659 644.329 154.07 641.885 154.07V158.07ZM649.827 156.558C652.183 155.549 654.199 154.12 655.844 152.269L652.855 149.611C651.621 151 650.097 152.091 648.252 152.882L649.827 156.558ZM655.831 152.284C657.503 150.441 658.747 148.259 659.577 145.767L655.782 144.503C655.113 146.511 654.137 148.199 652.869 149.596L655.831 152.284ZM659.569 145.79C660.431 143.303 660.85 140.604 660.85 137.71H656.85C656.85 140.216 656.488 142.467 655.79 144.48L659.569 145.79ZM660.85 137.71V98.515H656.85V137.71H660.85ZM658.85 100.515H667.535V96.515H658.85V100.515ZM665.535 98.515V137.71H669.535V98.515H665.535ZM665.535 137.71C665.535 141.212 664.971 144.42 663.863 147.354L667.606 148.766C668.899 145.34 669.535 141.648 669.535 137.71H665.535ZM663.858 147.369C662.777 150.307 661.222 152.831 659.199 154.963L662.101 157.717C664.517 155.169 666.353 152.173 667.612 148.751L663.858 147.369ZM659.198 154.964C657.216 157.055 654.771 158.716 651.828 159.938L653.361 163.632C656.779 162.214 659.703 160.245 662.101 157.716L659.198 154.964ZM651.828 159.938C648.925 161.143 645.621 161.765 641.885 161.765V165.765C646.069 165.765 649.905 165.067 653.361 163.632L651.828 159.938ZM641.885 161.765C638.149 161.765 634.845 161.143 631.941 159.938L630.408 163.632C633.865 165.067 637.701 165.765 641.885 165.765V161.765ZM631.941 159.938C628.997 158.715 626.532 157.051 624.517 154.954L621.633 157.726C624.057 160.249 626.993 162.215 630.408 163.632L631.941 159.938ZM624.526 154.963C622.499 152.827 620.927 150.298 619.816 147.354L616.073 148.766C617.362 152.182 619.211 155.173 621.624 157.717L624.526 154.963ZM619.822 147.369C618.741 144.431 618.19 141.217 618.19 137.71H614.19C614.19 141.643 614.809 145.329 616.068 148.751L619.822 147.369ZM618.19 137.71V98.515H614.19V137.71H618.19ZM616.19 100.515H624.875V96.515H616.19V100.515ZM622.875 98.515V137.665H626.875V98.515H622.875ZM622.875 137.665C622.875 140.551 623.276 143.242 624.102 145.722L627.897 144.458C627.224 142.438 626.875 140.179 626.875 137.665H622.875ZM624.11 145.745C624.968 148.219 626.204 150.389 627.835 152.224L630.824 149.566C629.576 148.161 628.592 146.461 627.889 144.435L624.11 145.745ZM627.849 152.239C629.515 154.076 631.533 155.511 633.875 156.549L635.495 152.891C633.637 152.069 632.084 150.954 630.811 149.551L627.849 152.239ZM633.906 156.562C636.318 157.581 638.988 158.07 641.885 158.07V154.07C639.441 154.07 637.312 153.659 635.463 152.878L633.906 156.562ZM737.046 154.135L735.625 152.728L735.625 152.728L737.046 154.135ZM726.966 160.705L727.697 162.567L727.704 162.564L726.966 160.705ZM689.931 163H687.931V165H689.931V163ZM689.931 98.515V96.515H687.931V98.515H689.931ZM726.966 100.855L726.224 102.712L726.232 102.715L726.241 102.719L726.966 100.855ZM737.046 107.425L735.617 108.824L735.625 108.832L737.046 107.425ZM743.526 117.595L745.392 116.874L745.392 116.874L743.526 117.595ZM723.456 107.29L722.707 109.144L722.707 109.144L723.456 107.29ZM698.661 105.58V103.58H696.661V105.58H698.661ZM698.661 155.935H696.661V157.935H698.661V155.935ZM723.456 154.225L722.707 152.371L722.707 152.371L723.456 154.225ZM730.656 149.32L732.121 150.682L732.131 150.671L730.656 149.32ZM735.246 141.4L737.136 142.054L737.136 142.054L735.246 141.4ZM743.821 130.78C743.821 135.397 743.09 139.544 741.661 143.244L745.392 144.686C747.022 140.466 747.821 135.823 747.821 130.78H743.821ZM741.661 143.244C740.223 146.966 738.208 150.117 735.625 152.728L738.468 155.542C741.465 152.513 743.77 148.884 745.392 144.686L741.661 143.244ZM735.625 152.728C733.041 155.339 729.919 157.381 726.228 158.846L727.704 162.564C731.874 160.909 735.471 158.571 738.468 155.542L735.625 152.728ZM726.236 158.843C722.597 160.271 718.529 161 714.006 161V165C718.964 165 723.535 164.199 727.697 162.567L726.236 158.843ZM714.006 161H689.931V165H714.006V161ZM691.931 163V98.515H687.931V163H691.931ZM689.931 100.515H714.006V96.515H689.931V100.515ZM714.006 100.515C718.524 100.515 722.588 101.258 726.224 102.712L727.709 98.998C723.544 97.3322 718.968 96.515 714.006 96.515V100.515ZM726.241 102.719C729.921 104.152 733.037 106.189 735.617 108.824L738.475 106.026C735.475 102.961 731.871 100.618 727.692 98.9913L726.241 102.719ZM735.625 108.832C738.208 111.443 740.223 114.594 741.661 118.316L745.392 116.874C743.77 112.676 741.465 109.047 738.468 106.018L735.625 108.832ZM741.661 118.316C743.09 122.016 743.821 126.163 743.821 130.78H747.821C747.821 125.737 747.022 121.094 745.392 116.874L741.661 118.316ZM738.866 130.78C738.866 126.64 738.302 122.873 737.136 119.506L733.356 120.814C734.351 123.687 734.866 127 734.866 130.78H738.866ZM737.136 119.506C735.978 116.16 734.317 113.274 732.131 110.889L729.182 113.591C730.955 115.526 732.354 117.92 733.356 120.814L737.136 119.506ZM732.131 110.889C729.942 108.501 727.291 106.683 724.206 105.436L722.707 109.144C725.262 110.177 727.411 111.659 729.182 113.591L732.131 110.889ZM724.206 105.436C721.116 104.187 717.706 103.58 714.006 103.58V107.58C717.266 107.58 720.157 108.113 722.707 109.144L724.206 105.436ZM714.006 103.58H698.661V107.58H714.006V103.58ZM696.661 105.58V155.935H700.661V105.58H696.661ZM698.661 157.935H714.006V153.935H698.661V157.935ZM714.006 157.935C717.706 157.935 721.116 157.328 724.206 156.079L722.707 152.371C720.157 153.402 717.266 153.935 714.006 153.935V157.935ZM724.206 156.079C727.285 154.835 729.932 153.036 732.121 150.682L729.191 147.958C727.42 149.864 725.268 151.335 722.707 152.371L724.206 156.079ZM732.131 150.671C734.317 148.286 735.978 145.4 737.136 142.054L733.356 140.746C732.354 143.64 730.955 146.034 729.182 147.969L732.131 150.671ZM737.136 142.054C738.302 138.687 738.866 134.92 738.866 130.78H734.866C734.866 134.56 734.351 137.873 733.356 140.746L737.136 142.054ZM812.263 154.135L810.841 152.728L810.841 152.728L812.263 154.135ZM802.183 160.705L802.914 162.567L802.921 162.564L802.183 160.705ZM765.148 163H763.148V165H765.148V163ZM765.148 98.515V96.515H763.148V98.515H765.148ZM802.183 100.855L801.44 102.712L801.449 102.715L801.458 102.719L802.183 100.855ZM812.263 107.425L810.834 108.824L810.841 108.832L812.263 107.425ZM818.743 117.595L820.609 116.874L820.609 116.874L818.743 117.595ZM798.673 107.29L797.924 109.144L797.924 109.144L798.673 107.29ZM773.878 105.58V103.58H771.878V105.58H773.878ZM773.878 155.935H771.878V157.935H773.878V155.935ZM798.673 154.225L797.924 152.371L797.924 152.371L798.673 154.225ZM805.873 149.32L807.338 150.682L807.347 150.671L805.873 149.32ZM810.463 141.4L812.353 142.054L812.353 142.054L810.463 141.4ZM819.038 130.78C819.038 135.397 818.307 139.544 816.877 143.244L820.609 144.686C822.239 140.466 823.038 135.823 823.038 130.78H819.038ZM816.877 143.244C815.44 146.966 813.424 150.117 810.841 152.728L813.685 155.542C816.682 152.513 818.987 148.884 820.609 144.686L816.877 143.244ZM810.841 152.728C808.258 155.339 805.136 157.381 801.445 158.846L802.921 162.564C807.091 160.909 810.688 158.571 813.685 155.542L810.841 152.728ZM801.453 158.843C797.814 160.271 793.746 161 789.223 161V165C794.18 165 798.752 164.199 802.914 162.567L801.453 158.843ZM789.223 161H765.148V165H789.223V161ZM767.148 163V98.515H763.148V163H767.148ZM765.148 100.515H789.223V96.515H765.148V100.515ZM789.223 100.515C793.741 100.515 797.805 101.258 801.44 102.712L802.926 98.998C798.761 97.3322 794.185 96.515 789.223 96.515V100.515ZM801.458 102.719C805.138 104.152 808.254 106.189 810.834 108.824L813.692 106.026C810.692 102.961 807.088 100.618 802.909 98.9913L801.458 102.719ZM810.841 108.832C813.424 111.443 815.44 114.594 816.877 118.316L820.609 116.874C818.987 112.676 816.682 109.047 813.685 106.018L810.841 108.832ZM816.877 118.316C818.307 122.016 819.038 126.163 819.038 130.78H823.038C823.038 125.737 822.239 121.094 820.609 116.874L816.877 118.316ZM814.083 130.78C814.083 126.64 813.519 122.873 812.353 119.506L808.573 120.814C809.567 123.687 810.083 127 810.083 130.78H814.083ZM812.353 119.506C811.195 116.16 809.534 113.274 807.347 110.889L804.399 113.591C806.172 115.526 807.571 117.92 808.573 120.814L812.353 119.506ZM807.347 110.889C805.159 108.501 802.508 106.683 799.423 105.436L797.924 109.144C800.478 110.177 802.628 111.659 804.399 113.591L807.347 110.889ZM799.423 105.436C796.333 104.187 792.923 103.58 789.223 103.58V107.58C792.483 107.58 795.373 108.113 797.924 109.144L799.423 105.436ZM789.223 103.58H773.878V107.58H789.223V103.58ZM771.878 105.58V155.935H775.878V105.58H771.878ZM773.878 157.935H789.223V153.935H773.878V157.935ZM789.223 157.935C792.923 157.935 796.333 157.328 799.423 156.079L797.924 152.371C795.373 153.402 792.483 153.935 789.223 153.935V157.935ZM799.423 156.079C802.502 154.835 805.149 153.036 807.338 150.682L804.408 147.958C802.637 149.864 800.485 151.335 797.924 152.371L799.423 156.079ZM807.347 150.671C809.534 148.286 811.195 145.4 812.353 142.054L808.573 140.746C807.571 143.64 806.172 146.034 804.399 147.969L807.347 150.671ZM812.353 142.054C813.519 138.687 814.083 134.92 814.083 130.78H810.083C810.083 134.56 809.567 137.873 808.573 140.746L812.353 142.054ZM861.059 137.305L859.351 136.265L859.059 136.744V137.305H861.059ZM861.059 163V165H863.059V163H861.059ZM852.329 163H850.329V165H852.329V163ZM852.329 137.305H854.329V136.744L854.037 136.265L852.329 137.305ZM828.704 98.515V96.515H825.144L826.996 99.5553L828.704 98.515ZM838.199 99.1L836.889 100.611L836.919 100.637L836.95 100.662L838.199 99.1ZM839.369 100.54L837.617 101.504L837.631 101.53L837.646 101.555L839.369 100.54ZM854.129 125.605L855.908 124.69L855.882 124.639L855.853 124.59L854.129 125.605ZM855.614 128.575L853.814 129.446L853.82 129.458L853.825 129.469L855.614 128.575ZM856.784 131.32L854.899 131.989L856.784 137.301L858.669 131.989L856.784 131.32ZM857.909 128.575L859.722 129.421L859.727 129.41L859.732 129.398L857.909 128.575ZM859.304 125.605L857.58 124.592L857.54 124.66L857.505 124.731L859.304 125.605ZM874.019 100.54L875.744 101.553L875.766 101.515L875.787 101.476L874.019 100.54ZM875.144 99.145L876.461 100.65L876.461 100.65L875.144 99.145ZM884.684 98.515L886.392 99.5553L888.244 96.515H884.684V98.515ZM859.059 137.305V163H863.059V137.305H859.059ZM861.059 161H852.329V165H861.059V161ZM854.329 163V137.305H850.329V163H854.329ZM854.037 136.265L830.412 97.4747L826.996 99.5553L850.621 138.345L854.037 136.265ZM828.704 100.515H836.354V96.515H828.704V100.515ZM836.354 100.515C836.581 100.515 836.72 100.544 836.796 100.568C836.866 100.59 836.887 100.609 836.889 100.611L839.509 97.5886C838.595 96.7966 837.464 96.515 836.354 96.515V100.515ZM836.95 100.662C837.16 100.83 837.39 101.092 837.617 101.504L841.122 99.5762C840.688 98.7883 840.139 98.0904 839.449 97.5383L836.95 100.662ZM837.646 101.555L852.406 126.62L855.853 124.59L841.093 99.5251L837.646 101.555ZM852.351 126.52C852.884 127.557 853.372 128.533 853.814 129.446L857.415 127.704C856.957 126.757 856.454 125.753 855.908 124.69L852.351 126.52ZM853.825 129.469C854.24 130.298 854.597 131.137 854.899 131.989L858.669 130.651C858.311 129.643 857.889 128.652 857.403 127.681L853.825 129.469ZM858.669 131.989C858.978 131.119 859.328 130.263 859.722 129.421L856.097 127.729C855.65 128.687 855.251 129.661 854.899 130.651L858.669 131.989ZM859.732 129.398C860.143 128.487 860.6 127.514 861.103 126.479L857.505 124.731C856.988 125.796 856.515 126.803 856.087 127.752L859.732 129.398ZM861.029 126.618L875.744 101.553L872.295 99.5274L857.58 124.592L861.029 126.618ZM875.787 101.476C875.931 101.203 876.146 100.926 876.461 100.65L873.827 97.6398C873.183 98.2037 872.647 98.857 872.252 99.6042L875.787 101.476ZM876.461 100.65C876.514 100.604 876.634 100.515 876.989 100.515V96.515C875.845 96.515 874.734 96.8462 873.827 97.6398L876.461 100.65ZM876.989 100.515H884.684V96.515H876.989V100.515ZM882.976 97.4747L859.351 136.265L862.767 138.345L886.392 99.5553L882.976 97.4747ZM560.242 304.83L561.576 306.32L561.578 306.318L560.242 304.83ZM562.807 301.14L564.675 301.855L564.68 301.842L562.807 301.14ZM560.062 288.54L558.792 290.084L558.797 290.089L558.803 290.094L560.062 288.54ZM535.447 285.615V283.615H533.447V285.615H535.447ZM535.447 308.07H533.447V310.07H535.447V308.07ZM535.447 257.4V255.4H533.447V257.4H535.447ZM535.447 279.405H533.447V281.405H535.447V279.405ZM553.357 278.595L552.791 276.677L552.783 276.679L553.357 278.595ZM557.857 276.345L556.608 274.783L556.598 274.791L556.589 274.799L557.857 276.345ZM560.512 272.88L562.355 273.658L562.358 273.651L562.361 273.644L560.512 272.88ZM557.947 260.055L556.721 261.635L556.727 261.64L556.734 261.645L557.947 260.055ZM557.542 251.685L557.014 253.614L557.02 253.615L557.542 251.685ZM564.607 255.015L563.371 256.587L563.377 256.592L563.383 256.596L564.607 255.015ZM568.702 260.325L566.855 261.09L566.859 261.1L568.702 260.325ZM569.242 271.935L567.353 271.279L567.349 271.291L567.345 271.303L569.242 271.935ZM563.257 279.405L564.359 281.074L564.367 281.069L563.257 279.405ZM557.947 281.835L557.357 279.924L557.574 283.8L557.947 281.835ZM568.612 286.92L567.164 288.299L567.172 288.308L567.181 288.317L568.612 286.92ZM570.682 304.11L568.861 303.284L568.856 303.294L568.852 303.305L570.682 304.11ZM566.272 309.915L564.994 308.377L564.988 308.381L564.983 308.386L566.272 309.915ZM559.162 313.695L559.752 315.606L559.761 315.603L559.77 315.6L559.162 313.695ZM526.762 315H524.762V317H526.762V315ZM526.762 250.515V248.515H524.762V250.515H526.762ZM549.397 310.07C552.031 310.07 554.39 309.77 556.436 309.122L555.229 305.308C553.675 305.8 551.744 306.07 549.397 306.07V310.07ZM556.436 309.122C558.444 308.486 560.182 307.568 561.576 306.32L558.909 303.34C558.023 304.132 556.82 304.804 555.229 305.308L556.436 309.122ZM561.578 306.318C562.974 305.066 564.017 303.574 564.675 301.855L560.94 300.425C560.518 301.526 559.85 302.494 558.907 303.342L561.578 306.318ZM564.68 301.842C565.313 300.154 565.617 298.338 565.617 296.415H561.617C561.617 297.912 561.382 299.246 560.935 300.438L564.68 301.842ZM565.617 296.415C565.617 292.545 564.207 289.324 561.321 286.986L558.803 290.094C560.658 291.596 561.617 293.625 561.617 296.415H565.617ZM561.333 286.996C558.456 284.628 554.361 283.615 549.397 283.615V287.615C553.914 287.615 556.929 288.552 558.792 290.084L561.333 286.996ZM549.397 283.615H535.447V287.615H549.397V283.615ZM533.447 285.615V308.07H537.447V285.615H533.447ZM535.447 310.07H549.397V306.07H535.447V310.07ZM533.447 257.4V279.405H537.447V257.4H533.447ZM535.447 281.405H546.967V277.405H535.447V281.405ZM546.967 281.405C549.566 281.405 551.898 281.121 553.932 280.511L552.783 276.679C551.216 277.149 549.289 277.405 546.967 277.405V281.405ZM553.923 280.513C555.946 279.917 557.703 279.059 559.126 277.891L556.589 274.799C555.672 275.551 554.429 276.193 552.791 276.677L553.923 280.513ZM559.107 277.907C560.553 276.749 561.649 275.33 562.355 273.658L558.67 272.102C558.236 273.13 557.561 274.021 556.608 274.783L559.107 277.907ZM562.361 273.644C563.039 272.001 563.367 270.24 563.367 268.38H559.367C559.367 269.76 559.126 270.999 558.664 272.116L562.361 273.644ZM563.367 268.38C563.367 264.168 562.09 260.7 559.161 258.465L556.734 261.645C558.365 262.89 559.367 264.972 559.367 268.38H563.367ZM559.174 258.475C556.377 256.304 552.302 255.4 547.327 255.4V259.4C551.953 259.4 554.957 260.266 556.721 261.635L559.174 258.475ZM547.327 255.4H535.447V259.4H547.327V255.4ZM547.327 252.515C551.165 252.515 554.383 252.894 557.014 253.614L558.07 249.756C555.001 248.916 551.409 248.515 547.327 248.515V252.515ZM557.02 253.615C559.71 254.344 561.802 255.353 563.371 256.587L565.844 253.443C563.752 251.797 561.135 250.586 558.065 249.755L557.02 253.615ZM563.383 256.596C564.978 257.831 566.123 259.324 566.855 261.09L570.55 259.56C569.542 257.126 567.957 255.079 565.832 253.434L563.383 256.596ZM566.859 261.1C567.61 262.888 568.007 264.958 568.007 267.345H572.007C572.007 264.512 571.535 261.902 570.546 259.55L566.859 261.1ZM568.007 267.345C568.007 268.717 567.788 270.025 567.353 271.279L571.132 272.591C571.717 270.905 572.007 269.153 572.007 267.345H568.007ZM567.345 271.303C566.942 272.512 566.321 273.66 565.465 274.749L568.61 277.221C569.734 275.79 570.583 274.238 571.14 272.567L567.345 271.303ZM565.465 274.749C564.623 275.82 563.527 276.821 562.148 277.741L564.367 281.069C566.047 279.949 567.472 278.67 568.61 277.221L565.465 274.749ZM562.156 277.736C560.84 278.604 559.249 279.34 557.357 279.924L558.537 283.746C560.726 283.07 562.674 282.186 564.359 281.074L562.156 277.736ZM557.574 283.8C562.064 284.652 565.177 286.212 567.164 288.299L570.061 285.541C567.307 282.648 563.311 280.818 558.32 279.87L557.574 283.8ZM567.181 288.317C569.155 290.34 570.212 293.047 570.212 296.64H574.212C574.212 292.193 572.87 288.42 570.044 285.523L567.181 288.317ZM570.212 296.64C570.212 299.115 569.751 301.32 568.861 303.284L572.504 304.936C573.653 302.4 574.212 299.625 574.212 296.64H570.212ZM568.852 303.305C567.991 305.262 566.713 306.948 564.994 308.377L567.55 311.453C569.731 309.642 571.394 307.458 572.513 304.915L568.852 303.305ZM564.983 308.386C563.295 309.81 561.168 310.955 558.554 311.79L559.77 315.6C562.796 314.635 565.409 313.26 567.562 311.444L564.983 308.386ZM558.573 311.784C555.98 312.584 552.975 313 549.532 313V317C553.29 317 556.704 316.546 559.752 315.606L558.573 311.784ZM549.532 313H526.762V317H549.532V313ZM528.762 315V250.515H524.762V315H528.762ZM526.762 252.515H547.327V248.515H526.762V252.515ZM629.046 302.94L627.565 301.596L627.558 301.604L627.551 301.611L629.046 302.94ZM632.376 297.135L630.486 296.48L630.482 296.491L630.479 296.503L632.376 297.135ZM633.546 250.515V248.515H631.546V250.515H633.546ZM642.231 250.515H644.231V248.515H642.231V250.515ZM640.431 300.06L638.56 299.354L638.557 299.362L638.554 299.369L640.431 300.06ZM635.346 308.34L633.895 306.963L633.895 306.964L635.346 308.34ZM597.771 308.34L596.32 309.717L596.329 309.726L597.771 308.34ZM592.641 300.06L590.764 300.751L590.767 300.758L590.77 300.766L592.641 300.06ZM590.886 250.515V248.515H588.886V250.515H590.886ZM599.571 250.515H601.571V248.515H599.571V250.515ZM600.696 297.09L598.799 297.722L598.802 297.734L598.806 297.745L600.696 297.09ZM604.026 302.895L602.531 304.224L602.538 304.231L602.545 304.239L604.026 302.895ZM609.381 306.72L608.571 308.549L608.587 308.556L608.603 308.562L609.381 306.72ZM616.581 310.07C619.477 310.07 622.136 309.581 624.524 308.558L622.948 304.882C621.135 305.659 619.025 306.07 616.581 306.07V310.07ZM624.524 308.558C626.879 307.549 628.895 306.12 630.541 304.269L627.551 301.611C626.317 303 624.793 304.091 622.948 304.882L624.524 308.558ZM630.527 304.284C632.199 302.441 633.443 300.259 634.273 297.767L630.479 296.503C629.809 298.511 628.833 300.199 627.565 301.596L630.527 304.284ZM634.266 297.79C635.128 295.303 635.546 292.604 635.546 289.71H631.546C631.546 292.216 631.184 294.467 630.486 296.48L634.266 297.79ZM635.546 289.71V250.515H631.546V289.71H635.546ZM633.546 252.515H642.231V248.515H633.546V252.515ZM640.231 250.515V289.71H644.231V250.515H640.231ZM640.231 289.71C640.231 293.212 639.667 296.42 638.56 299.354L642.302 300.766C643.595 297.34 644.231 293.648 644.231 289.71H640.231ZM638.554 299.369C637.473 302.307 635.918 304.831 633.895 306.963L636.797 309.717C639.213 307.169 641.049 304.173 642.308 300.751L638.554 299.369ZM633.895 306.964C631.913 309.055 629.467 310.716 626.524 311.938L628.058 315.632C631.475 314.214 634.399 312.245 636.797 309.716L633.895 306.964ZM626.524 311.938C623.621 313.143 620.317 313.765 616.581 313.765V317.765C620.765 317.765 624.601 317.067 628.058 315.632L626.524 311.938ZM616.581 313.765C612.845 313.765 609.541 313.143 606.638 311.938L605.104 315.632C608.561 317.067 612.397 317.765 616.581 317.765V313.765ZM606.638 311.938C603.693 310.715 601.228 309.051 599.213 306.954L596.329 309.726C598.754 312.249 601.689 314.215 605.104 315.632L606.638 311.938ZM599.222 306.963C597.195 304.827 595.623 302.298 594.512 299.354L590.77 300.766C592.059 304.182 593.907 307.173 596.32 309.717L599.222 306.963ZM594.518 299.369C593.437 296.431 592.886 293.217 592.886 289.71H588.886C588.886 293.643 589.505 297.329 590.764 300.751L594.518 299.369ZM592.886 289.71V250.515H588.886V289.71H592.886ZM590.886 252.515H599.571V248.515H590.886V252.515ZM597.571 250.515V289.665H601.571V250.515H597.571ZM597.571 289.665C597.571 292.551 597.972 295.242 598.799 297.722L602.593 296.458C601.92 294.438 601.571 292.179 601.571 289.665H597.571ZM598.806 297.745C599.664 300.219 600.9 302.389 602.531 304.224L605.521 301.566C604.272 300.161 603.288 298.461 602.586 296.435L598.806 297.745ZM602.545 304.239C604.212 306.076 606.229 307.511 608.571 308.549L610.191 304.891C608.333 304.069 606.78 302.954 605.507 301.551L602.545 304.239ZM608.603 308.562C611.014 309.581 613.685 310.07 616.581 310.07V306.07C614.137 306.07 612.008 305.659 610.159 304.878L608.603 308.562ZM711.743 306.135L710.321 304.728L710.321 304.728L711.743 306.135ZM701.663 312.705L702.393 314.567L702.4 314.564L701.663 312.705ZM664.628 315H662.628V317H664.628V315ZM664.628 250.515V248.515H662.628V250.515H664.628ZM701.663 252.855L700.92 254.712L700.928 254.715L700.937 254.719L701.663 252.855ZM711.743 259.425L710.313 260.824L710.321 260.832L711.743 259.425ZM718.223 269.595L720.088 268.874L720.088 268.874L718.223 269.595ZM698.153 259.29L697.403 261.144L697.403 261.144L698.153 259.29ZM673.358 257.58V255.58H671.358V257.58H673.358ZM673.358 307.935H671.358V309.935H673.358V307.935ZM698.153 306.225L697.403 304.371L697.403 304.371L698.153 306.225ZM705.353 301.32L706.817 302.682L706.827 302.671L705.353 301.32ZM709.943 293.4L711.833 294.054L711.833 294.054L709.943 293.4ZM718.518 282.78C718.518 287.397 717.787 291.544 716.357 295.244L720.088 296.686C721.718 292.466 722.518 287.823 722.518 282.78H718.518ZM716.357 295.244C714.919 298.966 712.904 302.117 710.321 304.728L713.164 307.542C716.161 304.513 718.466 300.884 720.088 296.686L716.357 295.244ZM710.321 304.728C707.738 307.339 704.615 309.381 700.925 310.846L702.4 314.564C706.57 312.909 710.167 310.571 713.164 307.542L710.321 304.728ZM700.932 310.843C697.293 312.271 693.225 313 688.703 313V317C693.66 317 698.232 316.199 702.393 314.567L700.932 310.843ZM688.703 313H664.628V317H688.703V313ZM666.628 315V250.515H662.628V315H666.628ZM664.628 252.515H688.703V248.515H664.628V252.515ZM688.703 252.515C693.221 252.515 697.284 253.258 700.92 254.712L702.405 250.998C698.241 249.332 693.665 248.515 688.703 248.515V252.515ZM700.937 254.719C704.618 256.152 707.734 258.189 710.313 260.824L713.172 258.026C710.172 254.961 706.568 252.618 702.388 250.991L700.937 254.719ZM710.321 260.832C712.904 263.443 714.919 266.594 716.357 270.316L720.088 268.874C718.466 264.676 716.161 261.047 713.164 258.018L710.321 260.832ZM716.357 270.316C717.787 274.016 718.518 278.163 718.518 282.78H722.518C722.518 277.737 721.718 273.094 720.088 268.874L716.357 270.316ZM713.563 282.78C713.563 278.64 712.998 274.873 711.833 271.506L708.053 272.814C709.047 275.687 709.563 279 709.563 282.78H713.563ZM711.833 271.506C710.674 268.16 709.014 265.274 706.827 262.889L703.878 265.591C705.651 267.526 707.051 269.92 708.053 272.814L711.833 271.506ZM706.827 262.889C704.638 260.501 701.987 258.683 698.902 257.436L697.403 261.144C699.958 262.177 702.107 263.659 703.878 265.591L706.827 262.889ZM698.902 257.436C695.812 256.187 692.403 255.58 688.703 255.58V259.58C691.962 259.58 694.853 260.113 697.403 261.144L698.902 257.436ZM688.703 255.58H673.358V259.58H688.703V255.58ZM671.358 257.58V307.935H675.358V257.58H671.358ZM673.358 309.935H688.703V305.935H673.358V309.935ZM688.703 309.935C692.403 309.935 695.812 309.328 698.902 308.079L697.403 304.371C694.853 305.402 691.962 305.935 688.703 305.935V309.935ZM698.902 308.079C701.981 306.835 704.629 305.036 706.817 302.682L703.888 299.958C702.116 301.864 699.964 303.335 697.403 304.371L698.902 308.079ZM706.827 302.671C709.014 300.286 710.674 297.4 711.833 294.054L708.053 292.746C707.051 295.64 705.651 298.034 703.878 299.969L706.827 302.671ZM711.833 294.054C712.998 290.687 713.563 286.92 713.563 282.78H709.563C709.563 286.56 709.047 289.873 708.053 292.746L711.833 294.054ZM786.959 306.135L785.538 304.728L785.538 304.728L786.959 306.135ZM776.879 312.705L777.61 314.567L777.617 314.564L776.879 312.705ZM739.844 315H737.844V317H739.844V315ZM739.844 250.515V248.515H737.844V250.515H739.844ZM776.879 252.855L776.137 254.712L776.145 254.715L776.154 254.719L776.879 252.855ZM786.959 259.425L785.53 260.824L785.538 260.832L786.959 259.425ZM793.439 269.595L795.305 268.874L795.305 268.874L793.439 269.595ZM773.369 259.29L772.62 261.144L772.62 261.144L773.369 259.29ZM748.574 257.58V255.58H746.574V257.58H748.574ZM748.574 307.935H746.574V309.935H748.574V307.935ZM773.369 306.225L772.62 304.371L772.62 304.371L773.369 306.225ZM780.569 301.32L782.034 302.682L782.044 302.671L780.569 301.32ZM785.159 293.4L787.049 294.054L787.049 294.054L785.159 293.4ZM793.734 282.78C793.734 287.397 793.004 291.544 791.574 295.244L795.305 296.686C796.935 292.466 797.734 287.823 797.734 282.78H793.734ZM791.574 295.244C790.136 298.966 788.121 302.117 785.538 304.728L788.381 307.542C791.378 304.513 793.683 300.884 795.305 296.686L791.574 295.244ZM785.538 304.728C782.954 307.339 779.832 309.381 776.141 310.846L777.617 314.564C781.787 312.909 785.384 310.571 788.381 307.542L785.538 304.728ZM776.149 310.843C772.51 312.271 768.442 313 763.919 313V317C768.877 317 773.449 316.199 777.61 314.567L776.149 310.843ZM763.919 313H739.844V317H763.919V313ZM741.844 315V250.515H737.844V315H741.844ZM739.844 252.515H763.919V248.515H739.844V252.515ZM763.919 252.515C768.437 252.515 772.501 253.258 776.137 254.712L777.622 250.998C773.457 249.332 768.881 248.515 763.919 248.515V252.515ZM776.154 254.719C779.834 256.152 782.95 258.189 785.53 260.824L788.389 258.026C785.388 254.961 781.784 252.618 777.605 250.991L776.154 254.719ZM785.538 260.832C788.121 263.443 790.136 266.594 791.574 270.316L795.305 268.874C793.683 264.676 791.378 261.047 788.381 258.018L785.538 260.832ZM791.574 270.316C793.004 274.016 793.734 278.163 793.734 282.78H797.734C797.734 277.737 796.935 273.094 795.305 268.874L791.574 270.316ZM788.779 282.78C788.779 278.64 788.215 274.873 787.049 271.506L783.269 272.814C784.264 275.687 784.779 279 784.779 282.78H788.779ZM787.049 271.506C785.891 268.16 784.23 265.274 782.044 262.889L779.095 265.591C780.868 267.526 782.268 269.92 783.269 272.814L787.049 271.506ZM782.044 262.889C779.855 260.501 777.204 258.683 774.119 257.436L772.62 261.144C775.175 262.177 777.324 263.659 779.095 265.591L782.044 262.889ZM774.119 257.436C771.029 256.187 767.62 255.58 763.919 255.58V259.58C767.179 259.58 770.07 260.113 772.62 261.144L774.119 257.436ZM763.919 255.58H748.574V259.58H763.919V255.58ZM746.574 257.58V307.935H750.574V257.58H746.574ZM748.574 309.935H763.919V305.935H748.574V309.935ZM763.919 309.935C767.62 309.935 771.029 309.328 774.119 308.079L772.62 304.371C770.07 305.402 767.179 305.935 763.919 305.935V309.935ZM774.119 308.079C777.198 306.835 779.846 305.036 782.034 302.682L779.105 299.958C777.333 301.864 775.181 303.335 772.62 304.371L774.119 308.079ZM782.044 302.671C784.23 300.286 785.891 297.4 787.049 294.054L783.269 292.746C782.268 295.64 780.868 298.034 779.095 299.969L782.044 302.671ZM787.049 294.054C788.215 290.687 788.779 286.92 788.779 282.78H784.779C784.779 286.56 784.264 289.873 783.269 292.746L787.049 294.054ZM835.756 289.305L834.047 288.265L833.756 288.744V289.305H835.756ZM835.756 315V317H837.756V315H835.756ZM827.026 315H825.026V317H827.026V315ZM827.026 289.305H829.026V288.744L828.734 288.265L827.026 289.305ZM803.401 250.515V248.515H799.841L801.692 251.555L803.401 250.515ZM812.896 251.1L811.586 252.611L811.615 252.637L811.646 252.662L812.896 251.1ZM814.066 252.54L812.313 253.504L812.327 253.53L812.342 253.555L814.066 252.54ZM828.826 277.605L830.604 276.69L830.578 276.639L830.549 276.59L828.826 277.605ZM830.311 280.575L828.51 281.446L828.516 281.458L828.522 281.469L830.311 280.575ZM831.481 283.32L829.596 283.989L831.481 289.301L833.365 283.989L831.481 283.32ZM832.606 280.575L834.418 281.421L834.423 281.41L834.428 281.398L832.606 280.575ZM834.001 277.605L832.276 276.592L832.236 276.66L832.202 276.731L834.001 277.605ZM848.716 252.54L850.44 253.553L850.463 253.515L850.483 253.476L848.716 252.54ZM849.841 251.145L851.158 252.65L851.158 252.65L849.841 251.145ZM859.381 250.515L861.089 251.555L862.94 248.515H859.381V250.515ZM833.756 289.305V315H837.756V289.305H833.756ZM835.756 313H827.026V317H835.756V313ZM829.026 315V289.305H825.026V315H829.026ZM828.734 288.265L805.109 249.475L801.692 251.555L825.317 290.345L828.734 288.265ZM803.401 252.515H811.051V248.515H803.401V252.515ZM811.051 252.515C811.277 252.515 811.416 252.544 811.492 252.568C811.562 252.59 811.583 252.609 811.586 252.611L814.205 249.589C813.291 248.797 812.16 248.515 811.051 248.515V252.515ZM811.646 252.662C811.856 252.83 812.086 253.092 812.313 253.504L815.818 251.576C815.385 250.788 814.835 250.09 814.145 249.538L811.646 252.662ZM812.342 253.555L827.102 278.62L830.549 276.59L815.789 251.525L812.342 253.555ZM827.047 278.52C827.581 279.557 828.068 280.533 828.51 281.446L832.111 279.704C831.653 278.757 831.151 277.753 830.604 276.69L827.047 278.52ZM828.522 281.469C828.936 282.298 829.294 283.137 829.596 283.989L833.365 282.651C833.008 281.643 832.585 280.652 832.099 279.681L828.522 281.469ZM833.365 283.989C833.674 283.119 834.025 282.263 834.418 281.421L830.793 279.729C830.346 280.687 829.947 281.661 829.596 282.651L833.365 283.989ZM834.428 281.398C834.84 280.487 835.297 279.514 835.8 278.479L832.202 276.731C831.685 277.796 831.211 278.803 830.783 279.752L834.428 281.398ZM835.725 278.618L850.44 253.553L846.991 251.527L832.276 276.592L835.725 278.618ZM850.483 253.476C850.628 253.203 850.842 252.926 851.158 252.65L848.524 249.64C847.879 250.204 847.344 250.857 846.948 251.604L850.483 253.476ZM851.158 252.65C851.211 252.604 851.33 252.515 851.686 252.515V248.515C850.541 248.515 849.431 248.846 848.524 249.64L851.158 252.65ZM851.686 252.515H859.381V248.515H851.686V252.515ZM857.672 249.475L834.047 288.265L837.464 290.345L861.089 251.555L857.672 249.475Z" fill="black"/>
<path d="M564 207H814" stroke="black" stroke-width="6" stroke-linecap="round" stroke-linejoin="round"/>
<path d="M94.0952 181L66 169.168M127.202 115.467L94.0952 89M196.136 63.5868L186.5 35M316.317 63.5868L327 35M385.252 115.467L415.184 89M415.184 181L448.5 169.168" stroke="black" stroke-width="16" stroke-linecap="round" stroke-linejoin="round"/>
<circle cx="200.5" cy="190.907" r="11.5" fill="black"/>
<circle cx="314.453" cy="190.907" r="11.5" fill="black"/>
<path d="M241 228H275V241C275 250.389 267.389 258 258 258C248.611 258 241 250.389 241 241V228Z" fill="black"/>
<path d="M170.322 321.215C142.539 296.817 125 261.017 125 221.117C125 147.599 184.546 88 258 88C331.454 88 391 147.599 391 221.117C391 261.017 373.461 296.817 345.678 321.215M197.43 339.869H320.264V372.334H197.43" stroke="black" stroke-width="19" stroke-linecap="round" stroke-linejoin="round"/>
</svg>
