<svg width="515" height="515" viewBox="0 0 515 515" fill="none" xmlns="http://www.w3.org/2000/svg">
<path d="M94.0952 189L66 177.168M127.202 123.467L94.0952 97M196.136 71.5868L186.5 43M316.317 71.5868L327 43M385.252 123.467L415.184 97M415.184 189L448.5 177.168" stroke="white" stroke-width="16" stroke-linecap="round" stroke-linejoin="round"/>
<path d="M178.232 314C152.957 291.822 137 259.278 137 223.008C137 156.177 191.174 102 258 102C324.826 102 379 156.177 379 223.008C379 259.278 363.043 291.822 337.768 314" stroke="white" stroke-width="19" stroke-linecap="round" stroke-linejoin="round"/>
<circle cx="200.5" cy="198.907" r="11.5" fill="white"/>
<circle cx="314.453" cy="198.907" r="11.5" fill="white"/>
<path d="M241 236H275V249C275 258.389 267.389 266 258 266V266C248.611 266 241 258.389 241 249V236Z" fill="white"/>
<path d="M170.07 359.984C169.926 360.224 169.766 360.408 169.59 360.536C169.43 360.648 169.23 360.704 168.99 360.704C168.718 360.704 168.398 360.568 168.03 360.296C167.662 360.024 167.198 359.728 166.638 359.408C166.094 359.072 165.43 358.768 164.646 358.496C163.878 358.224 162.942 358.088 161.838 358.088C160.798 358.088 159.878 358.232 159.078 358.52C158.294 358.792 157.63 359.168 157.086 359.648C156.558 360.128 156.158 360.696 155.886 361.352C155.614 361.992 155.478 362.688 155.478 363.44C155.478 364.4 155.71 365.2 156.174 365.84C156.654 366.464 157.278 367 158.046 367.448C158.83 367.896 159.71 368.288 160.686 368.624C161.678 368.944 162.686 369.28 163.71 369.632C164.75 369.984 165.758 370.384 166.734 370.832C167.726 371.264 168.606 371.816 169.374 372.488C170.158 373.16 170.782 373.984 171.246 374.96C171.726 375.936 171.966 377.136 171.966 378.56C171.966 380.064 171.71 381.48 171.198 382.808C170.686 384.12 169.934 385.264 168.942 386.24C167.966 387.216 166.758 387.984 165.318 388.544C163.894 389.104 162.27 389.384 160.446 389.384C158.206 389.384 156.174 388.984 154.35 388.184C152.526 387.368 150.966 386.272 149.67 384.896L151.014 382.688C151.142 382.512 151.294 382.368 151.47 382.256C151.662 382.128 151.87 382.064 152.094 382.064C152.302 382.064 152.534 382.152 152.79 382.328C153.062 382.488 153.366 382.696 153.702 382.952C154.038 383.208 154.422 383.488 154.854 383.792C155.286 384.096 155.774 384.376 156.318 384.632C156.878 384.888 157.51 385.104 158.214 385.28C158.918 385.44 159.71 385.52 160.59 385.52C161.694 385.52 162.678 385.368 163.542 385.064C164.406 384.76 165.134 384.336 165.726 383.792C166.334 383.232 166.798 382.568 167.118 381.8C167.438 381.032 167.598 380.176 167.598 379.232C167.598 378.192 167.358 377.344 166.878 376.688C166.414 376.016 165.798 375.456 165.03 375.008C164.262 374.56 163.382 374.184 162.39 373.88C161.398 373.56 160.39 373.24 159.366 372.92C158.342 372.584 157.334 372.2 156.342 371.768C155.35 371.336 154.47 370.776 153.702 370.088C152.934 369.4 152.31 368.544 151.83 367.52C151.366 366.48 151.134 365.2 151.134 363.68C151.134 362.464 151.366 361.288 151.83 360.152C152.31 359.016 152.998 358.008 153.894 357.128C154.806 356.248 155.918 355.544 157.23 355.016C158.558 354.488 160.078 354.224 161.79 354.224C163.71 354.224 165.454 354.528 167.022 355.136C168.606 355.744 169.998 356.624 171.198 357.776L170.07 359.984ZM207.796 358.52H196.66V389H192.028V358.52H180.868V354.608H207.796V358.52ZM232.172 385.304C233.596 385.304 234.868 385.064 235.988 384.584C237.108 384.104 238.052 383.432 238.82 382.568C239.604 381.704 240.196 380.672 240.596 379.472C241.012 378.272 241.22 376.952 241.22 375.512V354.608H245.852V375.512C245.852 377.496 245.532 379.336 244.892 381.032C244.268 382.728 243.364 384.2 242.18 385.448C241.012 386.68 239.58 387.648 237.884 388.352C236.188 389.056 234.284 389.408 232.172 389.408C230.06 389.408 228.156 389.056 226.46 388.352C224.764 387.648 223.324 386.68 222.14 385.448C220.956 384.2 220.044 382.728 219.404 381.032C218.78 379.336 218.468 377.496 218.468 375.512V354.608H223.1V375.488C223.1 376.928 223.3 378.248 223.7 379.448C224.116 380.648 224.708 381.68 225.476 382.544C226.26 383.408 227.212 384.088 228.332 384.584C229.468 385.064 230.748 385.304 232.172 385.304ZM290.005 371.816C290.005 374.392 289.597 376.736 288.781 378.848C287.965 380.96 286.813 382.768 285.325 384.272C283.837 385.776 282.045 386.944 279.949 387.776C277.869 388.592 275.565 389 273.037 389H260.197V354.608H273.037C275.565 354.608 277.869 355.024 279.949 355.856C282.045 356.672 283.837 357.84 285.325 359.36C286.813 360.864 287.965 362.672 288.781 364.784C289.597 366.896 290.005 369.24 290.005 371.816ZM285.229 371.816C285.229 369.704 284.941 367.816 284.365 366.152C283.789 364.488 282.973 363.08 281.917 361.928C280.861 360.776 279.581 359.896 278.077 359.288C276.573 358.68 274.893 358.376 273.037 358.376H264.853V385.232H273.037C274.893 385.232 276.573 384.928 278.077 384.32C279.581 383.712 280.861 382.84 281.917 381.704C282.973 380.552 283.789 379.144 284.365 377.48C284.941 375.816 285.229 373.928 285.229 371.816ZM332.52 371.816C332.52 374.392 332.112 376.736 331.296 378.848C330.48 380.96 329.328 382.768 327.84 384.272C326.352 385.776 324.56 386.944 322.464 387.776C320.384 388.592 318.08 389 315.552 389H302.712V354.608H315.552C318.08 354.608 320.384 355.024 322.464 355.856C324.56 356.672 326.352 357.84 327.84 359.36C329.328 360.864 330.48 362.672 331.296 364.784C332.112 366.896 332.52 369.24 332.52 371.816ZM327.744 371.816C327.744 369.704 327.456 367.816 326.88 366.152C326.304 364.488 325.488 363.08 324.432 361.928C323.376 360.776 322.096 359.896 320.592 359.288C319.088 358.68 317.408 358.376 315.552 358.376H307.368V385.232H315.552C317.408 385.232 319.088 384.928 320.592 384.32C322.096 383.712 323.376 382.84 324.432 381.704C325.488 380.552 326.304 379.144 326.88 377.48C327.456 375.816 327.744 373.928 327.744 371.816ZM356.265 375.296V389H351.609V375.296L339.009 354.608H343.089C343.505 354.608 343.833 354.712 344.073 354.92C344.313 355.112 344.521 355.368 344.697 355.688L352.569 369.056C352.857 369.616 353.121 370.144 353.361 370.64C353.601 371.12 353.809 371.608 353.985 372.104C354.161 371.608 354.361 371.12 354.585 370.64C354.809 370.144 355.057 369.616 355.329 369.056L363.177 355.688C363.321 355.416 363.521 355.168 363.777 354.944C364.033 354.72 364.361 354.608 364.761 354.608H368.865L356.265 375.296ZM179.245 455.304C180.573 455.304 181.717 455.152 182.677 454.848C183.637 454.544 184.421 454.12 185.029 453.576C185.653 453.016 186.109 452.36 186.397 451.608C186.685 450.84 186.829 450 186.829 449.088C186.829 447.312 186.197 445.912 184.933 444.888C183.669 443.848 181.773 443.328 179.245 443.328H171.805V455.304H179.245ZM171.805 428.28V440.016H177.949C179.261 440.016 180.397 439.872 181.357 439.584C182.333 439.296 183.133 438.896 183.757 438.384C184.397 437.872 184.869 437.256 185.173 436.536C185.477 435.8 185.629 435 185.629 434.136C185.629 432.104 185.021 430.624 183.805 429.696C182.589 428.752 180.701 428.28 178.141 428.28H171.805ZM178.141 424.608C180.253 424.608 182.069 424.816 183.589 425.232C185.125 425.648 186.381 426.24 187.357 427.008C188.349 427.776 189.077 428.72 189.541 429.84C190.005 430.944 190.237 432.192 190.237 433.584C190.237 434.432 190.101 435.248 189.829 436.032C189.573 436.8 189.181 437.52 188.653 438.192C188.125 438.864 187.453 439.472 186.637 440.016C185.837 440.544 184.893 440.976 183.805 441.312C186.333 441.792 188.229 442.696 189.493 444.024C190.773 445.336 191.413 447.064 191.413 449.208C191.413 450.664 191.141 451.992 190.597 453.192C190.069 454.392 189.285 455.424 188.245 456.288C187.221 457.152 185.957 457.824 184.453 458.304C182.949 458.768 181.237 459 179.317 459H167.173V424.608H178.141ZM217.477 455.304C218.901 455.304 220.173 455.064 221.293 454.584C222.413 454.104 223.357 453.432 224.125 452.568C224.909 451.704 225.501 450.672 225.901 449.472C226.317 448.272 226.525 446.952 226.525 445.512V424.608H231.157V445.512C231.157 447.496 230.837 449.336 230.197 451.032C229.573 452.728 228.669 454.2 227.484 455.448C226.317 456.68 224.885 457.648 223.189 458.352C221.493 459.056 219.589 459.408 217.477 459.408C215.365 459.408 213.461 459.056 211.765 458.352C210.069 457.648 208.629 456.68 207.445 455.448C206.261 454.2 205.349 452.728 204.709 451.032C204.085 449.336 203.773 447.496 203.773 445.512V424.608H208.405V445.488C208.405 446.928 208.605 448.248 209.005 449.448C209.421 450.648 210.013 451.68 210.781 452.544C211.565 453.408 212.517 454.088 213.637 454.584C214.773 455.064 216.053 455.304 217.477 455.304ZM275.309 441.816C275.309 444.392 274.901 446.736 274.085 448.848C273.269 450.96 272.117 452.768 270.629 454.272C269.141 455.776 267.349 456.944 265.253 457.776C263.173 458.592 260.869 459 258.341 459H245.501V424.608H258.341C260.869 424.608 263.173 425.024 265.253 425.856C267.349 426.672 269.141 427.84 270.629 429.36C272.117 430.864 273.269 432.672 274.085 434.784C274.901 436.896 275.309 439.24 275.309 441.816ZM270.533 441.816C270.533 439.704 270.245 437.816 269.669 436.152C269.093 434.488 268.277 433.08 267.221 431.928C266.165 430.776 264.885 429.896 263.381 429.288C261.877 428.68 260.197 428.376 258.341 428.376H250.157V455.232H258.341C260.197 455.232 261.877 454.928 263.381 454.32C264.885 453.712 266.165 452.84 267.221 451.704C268.277 450.552 269.093 449.144 269.669 447.48C270.245 445.816 270.533 443.928 270.533 441.816ZM317.825 441.816C317.825 444.392 317.417 446.736 316.601 448.848C315.785 450.96 314.633 452.768 313.145 454.272C311.657 455.776 309.865 456.944 307.769 457.776C305.689 458.592 303.385 459 300.857 459H288.017V424.608H300.857C303.385 424.608 305.689 425.024 307.769 425.856C309.865 426.672 311.657 427.84 313.145 429.36C314.633 430.864 315.785 432.672 316.601 434.784C317.417 436.896 317.825 439.24 317.825 441.816ZM313.049 441.816C313.049 439.704 312.761 437.816 312.185 436.152C311.609 434.488 310.793 433.08 309.737 431.928C308.681 430.776 307.401 429.896 305.897 429.288C304.393 428.68 302.713 428.376 300.857 428.376H292.673V455.232H300.857C302.713 455.232 304.393 454.928 305.897 454.32C307.401 453.712 308.681 452.84 309.737 451.704C310.793 450.552 311.609 449.144 312.185 447.48C312.761 445.816 313.049 443.928 313.049 441.816ZM341.57 445.296V459H336.914V445.296L324.314 424.608H328.394C328.81 424.608 329.138 424.712 329.378 424.92C329.618 425.112 329.826 425.368 330.002 425.688L337.874 439.056C338.162 439.616 338.426 440.144 338.666 440.64C338.906 441.12 339.114 441.608 339.29 442.104C339.466 441.608 339.666 441.12 339.89 440.64C340.114 440.144 340.362 439.616 340.634 439.056L348.482 425.688C348.626 425.416 348.826 425.168 349.082 424.944C349.338 424.72 349.666 424.608 350.066 424.608H354.17L341.57 445.296Z" fill="white"/>
<path d="M170.07 359.984L170.927 360.498L170.945 360.469L170.96 360.439L170.07 359.984ZM169.59 360.536L170.163 361.355L170.171 361.35L170.178 361.345L169.59 360.536ZM168.03 360.296L168.624 359.492L168.624 359.492L168.03 360.296ZM166.638 359.408L166.112 360.259L166.127 360.268L166.142 360.276L166.638 359.408ZM164.646 358.496L164.312 359.439L164.318 359.441L164.646 358.496ZM159.078 358.52L159.406 359.465L159.417 359.461L159.078 358.52ZM157.086 359.648L156.424 358.898L156.419 358.903L156.413 358.908L157.086 359.648ZM155.886 361.352L156.806 361.743L156.81 361.735L155.886 361.352ZM156.174 365.84L155.364 366.427L155.373 366.438L155.381 366.45L156.174 365.84ZM158.046 367.448L157.542 368.312L157.55 368.316L158.046 367.448ZM160.686 368.624L160.36 369.57L160.37 369.573L160.379 369.576L160.686 368.624ZM163.71 369.632L163.385 370.578L163.389 370.579L163.71 369.632ZM166.734 370.832L166.317 371.741L166.326 371.745L166.335 371.749L166.734 370.832ZM169.374 372.488L168.715 373.241L168.723 373.247L169.374 372.488ZM171.246 374.96L170.343 375.389L170.349 375.401L171.246 374.96ZM171.198 382.808L172.13 383.172L172.131 383.168L171.198 382.808ZM168.942 386.24L168.241 385.527L168.235 385.533L168.942 386.24ZM165.318 388.544L164.955 387.612L164.952 387.613L165.318 388.544ZM154.35 388.184L153.942 389.097L153.948 389.1L154.35 388.184ZM149.67 384.896L148.816 384.376L148.42 385.027L148.942 385.582L149.67 384.896ZM151.014 382.688L150.205 382.1L150.181 382.133L150.16 382.168L151.014 382.688ZM151.47 382.256L152.007 383.1L152.016 383.094L152.025 383.088L151.47 382.256ZM152.79 382.328L152.223 383.152L152.252 383.172L152.283 383.19L152.79 382.328ZM153.702 382.952L153.096 383.747L153.096 383.747L153.702 382.952ZM154.854 383.792L154.278 384.61L154.278 384.61L154.854 383.792ZM156.318 384.632L155.892 385.537L155.902 385.541L156.318 384.632ZM158.214 385.28L157.971 386.25L157.982 386.253L157.992 386.255L158.214 385.28ZM163.542 385.064L163.874 386.007L163.874 386.007L163.542 385.064ZM165.726 383.792L166.403 384.528L166.403 384.528L165.726 383.792ZM166.878 376.688L166.055 377.256L166.063 377.267L166.071 377.279L166.878 376.688ZM162.39 373.88L162.083 374.832L162.09 374.834L162.097 374.836L162.39 373.88ZM159.366 372.92L159.054 373.87L159.061 373.872L159.068 373.874L159.366 372.92ZM153.702 370.088L154.369 369.343L154.369 369.343L153.702 370.088ZM151.83 367.52L150.917 367.927L150.921 367.936L150.924 367.944L151.83 367.52ZM151.83 360.152L150.909 359.763L150.904 359.774L151.83 360.152ZM153.894 357.128L153.2 356.408L153.193 356.415L153.894 357.128ZM157.23 355.016L156.86 354.087L156.857 354.088L157.23 355.016ZM167.022 355.136L166.66 356.068L166.664 356.07L167.022 355.136ZM171.198 357.776L172.088 358.231L172.427 357.569L171.89 357.055L171.198 357.776ZM169.212 359.47C169.119 359.626 169.043 359.697 169.002 359.727L170.178 361.345C170.489 361.119 170.733 360.822 170.927 360.498L169.212 359.47ZM169.016 359.717C169.025 359.711 169.033 359.706 169.04 359.703C169.046 359.7 169.05 359.699 169.05 359.699C169.05 359.699 169.033 359.704 168.99 359.704V361.704C169.388 361.704 169.8 361.609 170.163 361.355L169.016 359.717ZM168.99 359.704C169.02 359.704 169.006 359.711 168.937 359.682C168.868 359.652 168.764 359.595 168.624 359.492L167.436 361.1C167.869 361.421 168.402 361.704 168.99 361.704V359.704ZM168.624 359.492C168.215 359.189 167.715 358.872 167.134 358.54L166.142 360.276C166.68 360.584 167.109 360.859 167.436 361.1L168.624 359.492ZM167.163 358.557C166.542 358.173 165.808 357.841 164.974 357.551L164.318 359.441C165.052 359.695 165.646 359.971 166.112 360.259L167.163 358.557ZM164.98 357.553C164.074 357.233 163.018 357.088 161.838 357.088V359.088C162.866 359.088 163.682 359.215 164.312 359.439L164.98 357.553ZM161.838 357.088C160.707 357.088 159.669 357.244 158.739 357.579L159.417 359.461C160.087 359.22 160.889 359.088 161.838 359.088V357.088ZM158.75 357.575C157.861 357.884 157.079 358.321 156.424 358.898L157.748 360.398C158.181 360.015 158.727 359.7 159.406 359.465L158.75 357.575ZM156.413 358.908C155.777 359.487 155.291 360.176 154.962 360.969L156.81 361.735C157.025 361.216 157.339 360.769 157.759 360.388L156.413 358.908ZM154.966 360.961C154.637 361.734 154.478 362.565 154.478 363.44H156.478C156.478 362.811 156.591 362.25 156.806 361.743L154.966 360.961ZM154.478 363.44C154.478 364.565 154.752 365.582 155.364 366.427L156.984 365.253C156.668 364.818 156.478 364.235 156.478 363.44H154.478ZM155.381 366.45C155.95 367.189 156.677 367.807 157.542 368.312L158.55 366.584C157.879 366.193 157.358 365.739 156.967 365.23L155.381 366.45ZM157.55 368.316C158.395 368.799 159.333 369.216 160.36 369.57L161.011 367.678C160.086 367.36 159.265 366.993 158.542 366.58L157.55 368.316ZM160.379 369.576C161.365 369.894 162.367 370.228 163.385 370.578L164.035 368.686C163.005 368.332 161.991 367.994 160.993 367.672L160.379 369.576ZM163.389 370.579C164.397 370.92 165.373 371.308 166.317 371.741L167.151 369.923C166.143 369.46 165.103 369.048 164.031 368.685L163.389 370.579ZM166.335 371.749C167.238 372.142 168.029 372.64 168.715 373.241L170.032 371.735C169.182 370.992 168.214 370.386 167.133 369.915L166.335 371.749ZM168.723 373.247C169.396 373.824 169.936 374.534 170.343 375.389L172.149 374.531C171.628 373.434 170.92 372.496 170.025 371.729L168.723 373.247ZM170.349 375.401C170.744 376.204 170.966 377.244 170.966 378.56H172.966C172.966 377.028 172.708 375.668 172.143 374.519L170.349 375.401ZM170.966 378.56C170.966 379.948 170.73 381.241 170.265 382.448L172.131 383.168C172.69 381.719 172.966 380.18 172.966 378.56H170.966ZM170.266 382.444C169.805 383.627 169.131 384.651 168.241 385.527L169.643 386.953C170.737 385.877 171.567 384.613 172.13 383.172L170.266 382.444ZM168.235 385.533C167.368 386.4 166.282 387.096 164.955 387.612L165.68 389.476C167.234 388.872 168.564 388.032 169.649 386.947L168.235 385.533ZM164.952 387.613C163.665 388.12 162.168 388.384 160.446 388.384V390.384C162.372 390.384 164.123 390.088 165.684 389.475L164.952 387.613ZM160.446 388.384C158.327 388.384 156.434 388.006 154.752 387.268L153.948 389.1C155.914 389.962 158.085 390.384 160.446 390.384V388.384ZM154.758 387.271C153.048 386.506 151.598 385.485 150.398 384.21L148.942 385.582C150.334 387.059 152.004 388.23 153.942 389.097L154.758 387.271ZM150.524 385.416L151.868 383.208L150.16 382.168L148.816 384.376L150.524 385.416ZM151.823 383.276C151.88 383.197 151.941 383.141 152.007 383.1L150.933 381.412C150.647 381.595 150.404 381.827 150.205 382.1L151.823 383.276ZM152.025 383.088C152.058 383.066 152.074 383.064 152.094 383.064V381.064C151.666 381.064 151.266 381.19 150.915 381.424L152.025 383.088ZM152.094 383.064C152.056 383.064 152.045 383.056 152.069 383.065C152.094 383.075 152.146 383.099 152.223 383.152L153.356 381.504C153.011 381.267 152.581 381.064 152.094 381.064V383.064ZM152.283 383.19C152.511 383.324 152.782 383.508 153.096 383.747L154.308 382.157C153.95 381.884 153.612 381.652 153.297 381.466L152.283 383.19ZM153.096 383.747C153.444 384.013 153.839 384.3 154.278 384.61L155.429 382.974C155.005 382.676 154.632 382.403 154.308 382.157L153.096 383.747ZM154.278 384.61C154.764 384.951 155.303 385.26 155.892 385.537L156.744 383.727C156.245 383.492 155.808 383.241 155.429 382.974L154.278 384.61ZM155.902 385.541C156.527 385.827 157.218 386.062 157.971 386.25L158.456 384.31C157.802 384.146 157.229 383.949 156.734 383.723L155.902 385.541ZM157.992 386.255C158.783 386.435 159.651 386.52 160.59 386.52V384.52C159.769 384.52 159.053 384.445 158.436 384.305L157.992 386.255ZM160.59 386.52C161.784 386.52 162.884 386.356 163.874 386.007L163.21 384.121C162.472 384.38 161.603 384.52 160.59 384.52V386.52ZM163.874 386.007C164.848 385.665 165.698 385.176 166.403 384.528L165.049 383.056C164.57 383.496 163.964 383.855 163.21 384.121L163.874 386.007ZM166.403 384.528C167.118 383.869 167.666 383.085 168.041 382.185L166.195 381.415C165.93 382.051 165.549 382.595 165.048 383.056L166.403 384.528ZM168.041 382.185C168.418 381.279 168.598 380.29 168.598 379.232H166.598C166.598 380.062 166.458 380.785 166.195 381.415L168.041 382.185ZM168.598 379.232C168.598 378.039 168.321 376.967 167.685 376.097L166.071 377.279C166.394 377.721 166.598 378.345 166.598 379.232H168.598ZM167.701 376.12C167.146 375.317 166.417 374.659 165.534 374.144L164.526 375.872C165.179 376.253 165.682 376.715 166.055 377.256L167.701 376.12ZM165.534 374.144C164.689 373.652 163.737 373.247 162.683 372.924L162.097 374.836C163.027 375.121 163.835 375.468 164.526 375.872L165.534 374.144ZM162.697 372.928C161.702 372.607 160.691 372.286 159.664 371.966L159.068 373.874C160.089 374.194 161.094 374.513 162.083 374.832L162.697 372.928ZM159.678 371.97C158.683 371.644 157.705 371.271 156.741 370.851L155.943 372.685C156.963 373.129 158 373.524 159.054 373.87L159.678 371.97ZM156.741 370.851C155.842 370.46 155.054 369.956 154.369 369.343L153.035 370.833C153.886 371.596 154.858 372.212 155.943 372.685L156.741 370.851ZM154.369 369.343C153.711 368.753 153.164 368.01 152.735 367.096L150.924 367.944C151.456 369.078 152.157 370.047 153.035 370.833L154.369 369.343ZM152.743 367.113C152.352 366.236 152.134 365.104 152.134 363.68H150.134C150.134 365.296 150.38 366.724 150.917 367.927L152.743 367.113ZM152.134 363.68C152.134 362.595 152.34 361.547 152.756 360.53L150.904 359.774C150.392 361.029 150.134 362.333 150.134 363.68H152.134ZM152.751 360.541C153.179 359.529 153.791 358.631 154.595 357.841L153.193 356.415C152.205 357.385 151.441 358.503 150.909 359.763L152.751 360.541ZM154.588 357.848C155.398 357.067 156.397 356.429 157.603 355.944L156.857 354.088C155.439 354.659 154.214 355.429 153.2 356.408L154.588 357.848ZM157.599 355.945C158.789 355.472 160.18 355.224 161.79 355.224V353.224C159.976 353.224 158.327 353.504 156.86 354.087L157.599 355.945ZM161.79 355.224C163.604 355.224 165.223 355.511 166.66 356.068L167.383 354.204C165.685 353.545 163.816 353.224 161.79 353.224V355.224ZM166.664 356.07C168.126 356.631 169.403 357.44 170.505 358.497L171.89 357.055C170.592 355.808 169.086 354.857 167.38 354.202L166.664 356.07ZM170.307 357.321L169.179 359.529L170.96 360.439L172.088 358.231L170.307 357.321ZM207.796 358.52V359.52H208.796V358.52H207.796ZM196.66 358.52V357.52H195.66V358.52H196.66ZM196.66 389V390H197.66V389H196.66ZM192.028 389H191.028V390H192.028V389ZM192.028 358.52H193.028V357.52H192.028V358.52ZM180.868 358.52H179.868V359.52H180.868V358.52ZM180.868 354.608V353.608H179.868V354.608H180.868ZM207.796 354.608H208.796V353.608H207.796V354.608ZM207.796 357.52H196.66V359.52H207.796V357.52ZM195.66 358.52V389H197.66V358.52H195.66ZM196.66 388H192.028V390H196.66V388ZM193.028 389V358.52H191.028V389H193.028ZM192.028 357.52H180.868V359.52H192.028V357.52ZM181.868 358.52V354.608H179.868V358.52H181.868ZM180.868 355.608H207.796V353.608H180.868V355.608ZM206.796 354.608V358.52H208.796V354.608H206.796ZM238.82 382.568L238.079 381.896L238.072 381.904L238.82 382.568ZM240.596 379.472L239.651 379.144L239.647 379.156L240.596 379.472ZM241.22 354.608V353.608H240.22V354.608H241.22ZM245.852 354.608H246.852V353.608H245.852V354.608ZM244.892 381.032L243.956 380.679L243.953 380.687L244.892 381.032ZM242.18 385.448L241.454 384.76L241.454 384.76L242.18 385.448ZM222.14 385.448L221.414 386.136L221.419 386.141L222.14 385.448ZM219.404 381.032L218.465 381.377L218.468 381.385L219.404 381.032ZM218.468 354.608V353.608H217.468V354.608H218.468ZM223.1 354.608H224.1V353.608H223.1V354.608ZM223.7 379.448L222.751 379.764L222.755 379.776L223.7 379.448ZM225.476 382.544L224.728 383.208L224.735 383.216L225.476 382.544ZM228.332 384.584L227.927 385.498L227.935 385.502L227.943 385.505L228.332 384.584ZM232.172 386.304C233.709 386.304 235.118 386.045 236.382 385.503L235.594 383.665C234.618 384.083 233.483 384.304 232.172 384.304V386.304ZM236.382 385.503C237.629 384.968 238.696 384.212 239.567 383.232L238.072 381.904C237.407 382.652 236.586 383.24 235.594 383.665L236.382 385.503ZM239.56 383.24C240.445 382.265 241.104 381.109 241.544 379.788L239.647 379.156C239.287 380.235 238.762 381.143 238.079 381.896L239.56 383.24ZM241.541 379.8C241.998 378.481 242.22 377.049 242.22 375.512H240.22C240.22 376.855 240.026 378.063 239.651 379.144L241.541 379.8ZM242.22 375.512V354.608H240.22V375.512H242.22ZM241.22 355.608H245.852V353.608H241.22V355.608ZM244.852 354.608V375.512H246.852V354.608H244.852ZM244.852 375.512C244.852 377.387 244.55 379.106 243.956 380.679L245.827 381.385C246.514 379.566 246.852 377.605 246.852 375.512H244.852ZM243.953 380.687C243.374 382.262 242.54 383.615 241.454 384.76L242.905 386.136C244.188 384.785 245.162 383.194 245.83 381.377L243.953 380.687ZM241.454 384.76C240.39 385.882 239.078 386.774 237.5 387.428L238.267 389.276C240.082 388.522 241.634 387.478 242.906 386.136L241.454 384.76ZM237.5 387.428C235.943 388.075 234.172 388.408 232.172 388.408V390.408C234.396 390.408 236.433 390.037 238.267 389.276L237.5 387.428ZM232.172 388.408C230.172 388.408 228.401 388.075 226.843 387.428L226.076 389.276C227.911 390.037 229.948 390.408 232.172 390.408V388.408ZM226.843 387.428C225.265 386.773 223.942 385.881 222.861 384.755L221.419 386.141C222.705 387.479 224.263 388.523 226.076 389.276L226.843 387.428ZM222.865 384.76C221.778 383.614 220.935 382.257 220.339 380.679L218.468 381.385C219.153 383.199 220.134 384.786 221.414 386.136L222.865 384.76ZM220.342 380.687C219.763 379.112 219.468 377.39 219.468 375.512H217.468C217.468 377.602 217.797 379.56 218.465 381.377L220.342 380.687ZM219.468 375.512V354.608H217.468V375.512H219.468ZM218.468 355.608H223.1V353.608H218.468V355.608ZM222.1 354.608V375.488H224.1V354.608H222.1ZM222.1 375.488C222.1 377.021 222.313 378.449 222.751 379.764L224.648 379.132C224.287 378.047 224.1 376.835 224.1 375.488H222.1ZM222.755 379.776C223.21 381.087 223.865 382.237 224.728 383.208L226.223 381.88C225.551 381.123 225.022 380.209 224.645 379.12L222.755 379.776ZM224.735 383.216C225.618 384.188 226.686 384.949 227.927 385.498L228.737 383.67C227.738 383.227 226.902 382.628 226.216 381.872L224.735 383.216ZM227.943 385.505C229.219 386.045 230.635 386.304 232.172 386.304V384.304C230.861 384.304 229.716 384.083 228.721 383.663L227.943 385.505ZM285.325 384.272L284.614 383.569L284.614 383.569L285.325 384.272ZM279.949 387.776L280.314 388.707L280.318 388.705L279.949 387.776ZM260.197 389H259.197V390H260.197V389ZM260.197 354.608V353.608H259.197V354.608H260.197ZM279.949 355.856L279.577 356.785L279.586 356.788L279.949 355.856ZM285.325 359.36L284.61 360.06L284.614 360.063L285.325 359.36ZM288.781 364.784L289.713 364.424L289.713 364.424L288.781 364.784ZM278.077 359.288L277.702 360.215L277.702 360.215L278.077 359.288ZM264.853 358.376V357.376H263.853V358.376H264.853ZM264.853 385.232H263.853V386.232H264.853V385.232ZM278.077 384.32L277.702 383.393L277.702 383.393L278.077 384.32ZM281.917 381.704L282.649 382.385L282.654 382.38L281.917 381.704ZM284.365 377.48L285.31 377.807L285.31 377.807L284.365 377.48ZM289.005 371.816C289.005 374.286 288.614 376.505 287.848 378.488L289.713 379.208C290.58 376.967 291.005 374.498 291.005 371.816H289.005ZM287.848 378.488C287.078 380.48 285.998 382.169 284.614 383.569L286.036 384.975C287.627 383.367 288.851 381.44 289.713 379.208L287.848 378.488ZM284.614 383.569C283.229 384.968 281.556 386.062 279.58 386.847L280.318 388.705C282.533 387.826 284.444 386.584 286.036 384.975L284.614 383.569ZM279.583 386.845C277.634 387.61 275.456 388 273.037 388V390C275.673 390 278.103 389.574 280.314 388.707L279.583 386.845ZM273.037 388H260.197V390H273.037V388ZM261.197 389V354.608H259.197V389H261.197ZM260.197 355.608H273.037V353.608H260.197V355.608ZM273.037 355.608C275.454 355.608 277.63 356.005 279.577 356.784L280.32 354.928C278.108 354.043 275.676 353.608 273.037 353.608V355.608ZM279.586 356.788C281.557 357.555 283.227 358.647 284.61 360.06L286.039 358.66C284.446 357.033 282.532 355.789 280.311 354.924L279.586 356.788ZM284.614 360.063C285.998 361.463 287.078 363.152 287.848 365.144L289.713 364.424C288.851 362.192 287.627 360.265 286.036 358.657L284.614 360.063ZM287.848 365.144C288.614 367.127 289.005 369.346 289.005 371.816H291.005C291.005 369.134 290.58 366.665 289.713 364.424L287.848 365.144ZM286.229 371.816C286.229 369.614 285.929 367.613 285.31 365.825L283.42 366.479C283.953 368.019 284.229 369.794 284.229 371.816H286.229ZM285.31 365.825C284.695 364.048 283.813 362.517 282.654 361.252L281.18 362.604C282.132 363.643 282.883 364.928 283.42 366.479L285.31 365.825ZM282.654 361.252C281.493 359.986 280.088 359.022 278.451 358.361L277.702 360.215C279.073 360.77 280.228 361.566 281.18 362.604L282.654 361.252ZM278.451 358.361C276.812 357.698 275.003 357.376 273.037 357.376V359.376C274.783 359.376 276.333 359.662 277.702 360.215L278.451 358.361ZM273.037 357.376H264.853V359.376H273.037V357.376ZM263.853 358.376V385.232H265.853V358.376H263.853ZM264.853 386.232H273.037V384.232H264.853V386.232ZM273.037 386.232C275.003 386.232 276.812 385.91 278.451 385.247L277.702 383.393C276.333 383.946 274.783 384.232 273.037 384.232V386.232ZM278.451 385.247C280.085 384.587 281.489 383.633 282.649 382.385L281.184 381.023C280.233 382.047 279.076 382.837 277.702 383.393L278.451 385.247ZM282.654 382.38C283.813 381.115 284.695 379.584 285.31 377.807L283.42 377.153C282.883 378.704 282.132 379.989 281.18 381.028L282.654 382.38ZM285.31 377.807C285.929 376.019 286.229 374.018 286.229 371.816H284.229C284.229 373.838 283.953 375.613 283.42 377.153L285.31 377.807ZM327.84 384.272L327.129 383.569L327.129 383.569L327.84 384.272ZM322.464 387.776L322.83 388.707L322.833 388.705L322.464 387.776ZM302.712 389H301.712V390H302.712V389ZM302.712 354.608V353.608H301.712V354.608H302.712ZM322.464 355.856L322.093 356.785L322.102 356.788L322.464 355.856ZM327.84 359.36L327.126 360.06L327.129 360.063L327.84 359.36ZM331.296 364.784L332.229 364.424L332.229 364.424L331.296 364.784ZM320.592 359.288L320.218 360.215L320.218 360.215L320.592 359.288ZM307.368 358.376V357.376H306.368V358.376H307.368ZM307.368 385.232H306.368V386.232H307.368V385.232ZM320.592 384.32L320.218 383.393L320.218 383.393L320.592 384.32ZM324.432 381.704L325.165 382.385L325.169 382.38L324.432 381.704ZM326.88 377.48L327.825 377.807L327.825 377.807L326.88 377.48ZM331.52 371.816C331.52 374.286 331.129 376.505 330.364 378.488L332.229 379.208C333.095 376.967 333.52 374.498 333.52 371.816H331.52ZM330.364 378.488C329.594 380.48 328.514 382.169 327.129 383.569L328.551 384.975C330.143 383.367 331.367 381.44 332.229 379.208L330.364 378.488ZM327.129 383.569C325.745 384.968 324.072 386.062 322.095 386.847L322.833 388.705C325.049 387.826 326.96 386.584 328.551 384.975L327.129 383.569ZM322.099 386.845C320.15 387.61 317.972 388 315.552 388V390C318.189 390 320.619 389.574 322.83 388.707L322.099 386.845ZM315.552 388H302.712V390H315.552V388ZM303.712 389V354.608H301.712V389H303.712ZM302.712 355.608H315.552V353.608H302.712V355.608ZM315.552 355.608C317.969 355.608 320.145 356.005 322.093 356.784L322.836 354.928C320.623 354.043 318.191 353.608 315.552 353.608V355.608ZM322.102 356.788C324.073 357.555 325.743 358.647 327.126 360.06L328.555 358.66C326.962 357.033 325.048 355.789 322.827 354.924L322.102 356.788ZM327.129 360.063C328.514 361.463 329.594 363.152 330.364 365.144L332.229 364.424C331.367 362.192 330.143 360.265 328.551 358.657L327.129 360.063ZM330.364 365.144C331.129 367.127 331.52 369.346 331.52 371.816H333.52C333.52 369.134 333.095 366.665 332.229 364.424L330.364 365.144ZM328.744 371.816C328.744 369.614 328.444 367.613 327.825 365.825L325.935 366.479C326.468 368.019 326.744 369.794 326.744 371.816H328.744ZM327.825 365.825C327.21 364.048 326.329 362.517 325.169 361.252L323.695 362.604C324.648 363.643 325.398 364.928 325.935 366.479L327.825 365.825ZM325.169 361.252C324.009 359.986 322.604 359.022 320.967 358.361L320.218 360.215C321.589 360.77 322.744 361.566 323.695 362.604L325.169 361.252ZM320.967 358.361C319.328 357.698 317.518 357.376 315.552 357.376V359.376C317.298 359.376 318.849 359.662 320.218 360.215L320.967 358.361ZM315.552 357.376H307.368V359.376H315.552V357.376ZM306.368 358.376V385.232H308.368V358.376H306.368ZM307.368 386.232H315.552V384.232H307.368V386.232ZM315.552 386.232C317.518 386.232 319.328 385.91 320.967 385.247L320.218 383.393C318.849 383.946 317.298 384.232 315.552 384.232V386.232ZM320.967 385.247C322.601 384.587 324.004 383.633 325.165 382.385L323.7 381.023C322.748 382.047 321.592 382.837 320.218 383.393L320.967 385.247ZM325.169 382.38C326.329 381.115 327.21 379.584 327.825 377.807L325.935 377.153C325.398 378.704 324.648 379.989 323.695 381.028L325.169 382.38ZM327.825 377.807C328.444 376.019 328.744 374.018 328.744 371.816H326.744C326.744 373.838 326.468 375.613 325.935 377.153L327.825 377.807ZM356.265 375.296L355.411 374.776L355.265 375.015V375.296H356.265ZM356.265 389V390H357.265V389H356.265ZM351.609 389H350.609V390H351.609V389ZM351.609 375.296H352.609V375.015L352.463 374.776L351.609 375.296ZM339.009 354.608V353.608H337.229L338.155 355.128L339.009 354.608ZM344.073 354.92L343.418 355.676L343.433 355.689L343.448 355.701L344.073 354.92ZM344.697 355.688L343.821 356.17L343.828 356.183L343.835 356.195L344.697 355.688ZM352.569 369.056L353.458 368.599L353.445 368.573L353.431 368.549L352.569 369.056ZM353.361 370.64L352.461 371.076L352.467 371.087L353.361 370.64ZM353.985 372.104L353.043 372.438L353.985 375.094L354.927 372.438L353.985 372.104ZM354.585 370.64L355.491 371.063L355.496 371.052L354.585 370.64ZM355.329 369.056L354.467 368.55L354.447 368.584L354.429 368.619L355.329 369.056ZM363.177 355.688L364.039 356.194L364.05 356.175L364.061 356.156L363.177 355.688ZM363.777 354.944L364.435 355.697L364.435 355.697L363.777 354.944ZM368.865 354.608L369.719 355.128L370.645 353.608H368.865V354.608ZM355.265 375.296V389H357.265V375.296H355.265ZM356.265 388H351.609V390H356.265V388ZM352.609 389V375.296H350.609V389H352.609ZM352.463 374.776L339.863 354.088L338.155 355.128L350.755 375.816L352.463 374.776ZM339.009 355.608H343.089V353.608H339.009V355.608ZM343.089 355.608C343.34 355.608 343.41 355.669 343.418 355.676L344.728 354.164C344.256 353.755 343.67 353.608 343.089 353.608V355.608ZM343.448 355.701C343.568 355.797 343.696 355.944 343.821 356.17L345.573 355.206C345.345 354.792 345.058 354.427 344.698 354.139L343.448 355.701ZM343.835 356.195L351.707 369.563L353.431 368.549L345.559 355.181L343.835 356.195ZM351.68 369.513C351.964 370.067 352.225 370.588 352.461 371.076L354.261 370.204C354.017 369.7 353.749 369.165 353.458 368.599L351.68 369.513ZM352.467 371.087C352.689 371.531 352.88 371.982 353.043 372.438L354.927 371.77C354.737 371.234 354.513 370.709 354.255 370.193L352.467 371.087ZM354.927 372.438C355.093 371.973 355.281 371.514 355.491 371.063L353.679 370.217C353.441 370.726 353.229 371.243 353.043 371.77L354.927 372.438ZM355.496 371.052C355.716 370.565 355.96 370.046 356.228 369.493L354.429 368.619C354.154 369.186 353.902 369.723 353.674 370.228L355.496 371.052ZM356.191 369.562L364.039 356.194L362.315 355.182L354.467 368.55L356.191 369.562ZM364.061 356.156C364.142 356.003 364.262 355.849 364.435 355.697L363.118 354.191C362.78 354.487 362.5 354.829 362.293 355.22L364.061 356.156ZM364.435 355.697C364.478 355.659 364.558 355.608 364.761 355.608V353.608C364.164 353.608 363.588 353.781 363.118 354.191L364.435 355.697ZM364.761 355.608H368.865V353.608H364.761V355.608ZM368.011 354.088L355.411 374.776L357.119 375.816L369.719 355.128L368.011 354.088ZM185.029 453.576L185.696 454.321L185.697 454.32L185.029 453.576ZM186.397 451.608L187.331 451.966L187.334 451.959L186.397 451.608ZM184.933 444.888L184.298 445.66L184.304 445.665L184.933 444.888ZM171.805 443.328V442.328H170.805V443.328H171.805ZM171.805 455.304H170.805V456.304H171.805V455.304ZM171.805 428.28V427.28H170.805V428.28H171.805ZM171.805 440.016H170.805V441.016H171.805V440.016ZM181.357 439.584L181.074 438.625L181.07 438.626L181.357 439.584ZM183.757 438.384L183.133 437.603L183.123 437.611L183.757 438.384ZM185.173 436.536L186.095 436.925L186.098 436.918L185.173 436.536ZM183.805 429.696L183.192 430.486L183.199 430.491L183.805 429.696ZM183.589 425.232L183.325 426.197L183.328 426.197L183.589 425.232ZM187.357 427.008L186.739 427.794L186.745 427.799L187.357 427.008ZM189.541 429.84L188.617 430.223L188.619 430.227L189.541 429.84ZM189.829 436.032L188.884 435.704L188.881 435.716L189.829 436.032ZM186.637 440.016L187.188 440.851L187.192 440.848L186.637 440.016ZM183.805 441.312L183.51 440.357L183.619 442.294L183.805 441.312ZM189.493 444.024L188.769 444.713L188.777 444.722L189.493 444.024ZM190.597 453.192L189.686 452.779L189.682 452.789L190.597 453.192ZM188.245 456.288L187.606 455.519L187.6 455.524L188.245 456.288ZM184.453 458.304L184.748 459.26L184.757 459.257L184.453 458.304ZM167.173 459H166.173V460H167.173V459ZM167.173 424.608V423.608H166.173V424.608H167.173ZM179.245 456.304C180.645 456.304 181.896 456.144 182.979 455.801L182.375 453.895C181.538 454.16 180.501 454.304 179.245 454.304V456.304ZM182.979 455.801C184.043 455.464 184.961 454.979 185.696 454.321L184.362 452.831C183.882 453.261 183.231 453.624 182.375 453.895L182.979 455.801ZM185.697 454.32C186.434 453.659 186.984 452.872 187.331 451.966L185.463 451.25C185.234 451.848 184.872 452.373 184.361 452.832L185.697 454.32ZM187.334 451.959C187.668 451.067 187.829 450.107 187.829 449.088H185.829C185.829 449.893 185.702 450.613 185.461 451.257L187.334 451.959ZM187.829 449.088C187.829 447.042 187.085 445.344 185.563 444.111L184.304 445.665C185.31 446.48 185.829 447.582 185.829 449.088H187.829ZM185.569 444.116C184.051 442.867 181.885 442.328 179.245 442.328V444.328C181.661 444.328 183.288 444.829 184.298 445.66L185.569 444.116ZM179.245 442.328H171.805V444.328H179.245V442.328ZM170.805 443.328V455.304H172.805V443.328H170.805ZM171.805 456.304H179.245V454.304H171.805V456.304ZM170.805 428.28V440.016H172.805V428.28H170.805ZM171.805 441.016H177.949V439.016H171.805V441.016ZM177.949 441.016C179.33 441.016 180.568 440.865 181.645 440.542L181.07 438.626C180.227 438.879 179.192 439.016 177.949 439.016V441.016ZM181.64 440.543C182.712 440.227 183.641 439.773 184.392 439.157L183.123 437.611C182.626 438.019 181.954 438.365 181.074 438.625L181.64 440.543ZM184.382 439.165C185.145 438.554 185.723 437.806 186.095 436.925L184.252 436.147C184.016 436.706 183.649 437.19 183.133 437.603L184.382 439.165ZM186.098 436.918C186.456 436.051 186.629 435.12 186.629 434.136H184.629C184.629 434.88 184.499 435.549 184.249 436.154L186.098 436.918ZM186.629 434.136C186.629 431.903 185.952 430.077 184.412 428.901L183.199 430.491C184.09 431.171 184.629 432.305 184.629 434.136H186.629ZM184.418 428.906C182.944 427.762 180.789 427.28 178.141 427.28V429.28C180.614 429.28 182.234 429.742 183.192 430.486L184.418 428.906ZM178.141 427.28H171.805V429.28H178.141V427.28ZM178.141 425.608C180.192 425.608 181.915 425.811 183.325 426.197L183.853 424.267C182.224 423.821 180.314 423.608 178.141 423.608V425.608ZM183.328 426.197C184.769 426.588 185.894 427.129 186.739 427.794L187.976 426.222C186.869 425.351 185.481 424.708 183.851 424.267L183.328 426.197ZM186.745 427.799C187.604 428.464 188.222 429.269 188.617 430.223L190.465 429.457C189.932 428.171 189.094 427.088 187.969 426.217L186.745 427.799ZM188.619 430.227C189.024 431.191 189.237 432.304 189.237 433.584H191.237C191.237 432.08 190.986 430.697 190.463 429.453L188.619 430.227ZM189.237 433.584C189.237 434.323 189.119 435.028 188.884 435.704L190.774 436.36C191.083 435.468 191.237 434.541 191.237 433.584H189.237ZM188.881 435.716C188.663 436.369 188.328 436.988 187.867 437.574L189.44 438.81C190.035 438.052 190.484 437.231 190.778 436.348L188.881 435.716ZM187.867 437.574C187.413 438.152 186.823 438.69 186.083 439.184L187.192 440.848C188.083 440.254 188.837 439.576 189.44 438.81L187.867 437.574ZM186.086 439.181C185.379 439.648 184.524 440.043 183.51 440.357L184.1 442.267C185.262 441.909 186.296 441.44 187.188 440.851L186.086 439.181ZM183.619 442.294C186.022 442.751 187.697 443.587 188.769 444.713L190.218 443.335C188.762 441.805 186.645 440.833 183.992 440.33L183.619 442.294ZM188.777 444.722C189.845 445.816 190.413 447.277 190.413 449.208H192.413C192.413 446.851 191.702 444.856 190.209 443.326L188.777 444.722ZM190.413 449.208C190.413 450.537 190.166 451.722 189.686 452.779L191.508 453.605C192.117 452.262 192.413 450.791 192.413 449.208H190.413ZM189.682 452.789C189.218 453.843 188.531 454.751 187.606 455.519L188.884 457.057C190.04 456.097 190.92 454.941 191.513 453.595L189.682 452.789ZM187.6 455.524C186.693 456.29 185.55 456.904 184.149 457.351L184.757 459.257C186.364 458.744 187.75 458.014 188.89 457.052L187.6 455.524ZM184.158 457.348C182.768 457.777 181.158 458 179.317 458V460C181.316 460 183.13 459.759 184.748 459.26L184.158 457.348ZM179.317 458H167.173V460H179.317V458ZM168.173 459V424.608H166.173V459H168.173ZM167.173 425.608H178.141V423.608H167.173V425.608ZM224.125 452.568L223.384 451.896L223.377 451.904L224.125 452.568ZM225.901 449.472L224.956 449.144L224.952 449.156L225.901 449.472ZM226.525 424.608V423.608H225.525V424.608H226.525ZM231.157 424.608H232.157V423.608H231.157V424.608ZM230.197 451.032L229.261 450.679L229.258 450.687L230.197 451.032ZM227.484 455.448L226.759 454.76L226.759 454.76L227.484 455.448ZM207.445 455.448L206.719 456.136L206.723 456.141L207.445 455.448ZM204.709 451.032L203.77 451.377L203.773 451.385L204.709 451.032ZM203.773 424.608V423.608H202.773V424.608H203.773ZM208.405 424.608H209.405V423.608H208.405V424.608ZM209.005 449.448L208.056 449.764L208.06 449.776L209.005 449.448ZM210.781 452.544L210.033 453.208L210.04 453.216L210.781 452.544ZM213.637 454.584L213.232 455.498L213.239 455.502L213.247 455.505L213.637 454.584ZM217.477 456.304C219.013 456.304 220.423 456.045 221.686 455.503L220.899 453.665C219.922 454.083 218.788 454.304 217.477 454.304V456.304ZM221.686 455.503C222.934 454.968 224.001 454.212 224.872 453.232L223.377 451.904C222.712 452.652 221.891 453.24 220.899 453.665L221.686 455.503ZM224.865 453.24C225.75 452.265 226.409 451.109 226.849 449.788L224.952 449.156C224.592 450.235 224.067 451.143 223.384 451.896L224.865 453.24ZM226.845 449.8C227.302 448.481 227.525 447.049 227.525 445.512H225.525C225.525 446.855 225.331 448.063 224.956 449.144L226.845 449.8ZM227.525 445.512V424.608H225.525V445.512H227.525ZM226.525 425.608H231.157V423.608H226.525V425.608ZM230.157 424.608V445.512H232.157V424.608H230.157ZM230.157 445.512C230.157 447.387 229.854 449.106 229.261 450.679L231.132 451.385C231.819 449.566 232.157 447.605 232.157 445.512H230.157ZM229.258 450.687C228.679 452.262 227.845 453.615 226.759 454.76L228.21 456.136C229.492 454.785 230.466 453.194 231.135 451.377L229.258 450.687ZM226.759 454.76C225.695 455.882 224.382 456.774 222.805 457.428L223.572 459.276C225.387 458.522 226.938 457.478 228.21 456.136L226.759 454.76ZM222.805 457.428C221.248 458.075 219.477 458.408 217.477 458.408V460.408C219.7 460.408 221.737 460.037 223.572 459.276L222.805 457.428ZM217.477 458.408C215.476 458.408 213.705 458.075 212.148 457.428L211.381 459.276C213.216 460.037 215.253 460.408 217.477 460.408V458.408ZM212.148 457.428C210.569 456.773 209.247 455.881 208.166 454.755L206.723 456.141C208.01 457.479 209.568 458.523 211.381 459.276L212.148 457.428ZM208.17 454.76C207.083 453.614 206.24 452.257 205.644 450.679L203.773 451.385C204.457 453.199 205.438 454.786 206.719 456.136L208.17 454.76ZM205.647 450.687C205.067 449.112 204.773 447.39 204.773 445.512H202.773C202.773 447.602 203.102 449.56 203.77 451.377L205.647 450.687ZM204.773 445.512V424.608H202.773V445.512H204.773ZM203.773 425.608H208.405V423.608H203.773V425.608ZM207.405 424.608V445.488H209.405V424.608H207.405ZM207.405 445.488C207.405 447.021 207.617 448.449 208.056 449.764L209.953 449.132C209.592 448.047 209.405 446.835 209.405 445.488H207.405ZM208.06 449.776C208.514 451.087 209.17 452.237 210.033 453.208L211.528 451.88C210.855 451.123 210.327 450.209 209.949 449.12L208.06 449.776ZM210.04 453.216C210.922 454.188 211.991 454.949 213.232 455.498L214.041 453.67C213.042 453.227 212.207 452.628 211.521 451.872L210.04 453.216ZM213.247 455.505C214.524 456.045 215.939 456.304 217.477 456.304V454.304C216.166 454.304 215.021 454.083 214.026 453.663L213.247 455.505ZM270.629 454.272L269.918 453.569L269.918 453.569L270.629 454.272ZM265.253 457.776L265.619 458.707L265.622 458.705L265.253 457.776ZM245.501 459H244.501V460H245.501V459ZM245.501 424.608V423.608H244.501V424.608H245.501ZM265.253 425.856L264.882 426.785L264.891 426.788L265.253 425.856ZM270.629 429.36L269.915 430.06L269.918 430.063L270.629 429.36ZM274.085 434.784L275.018 434.424L275.018 434.424L274.085 434.784ZM263.381 429.288L263.007 430.215L263.007 430.215L263.381 429.288ZM250.157 428.376V427.376H249.157V428.376H250.157ZM250.157 455.232H249.157V456.232H250.157V455.232ZM263.381 454.32L263.007 453.393L263.007 453.393L263.381 454.32ZM267.221 451.704L267.954 452.385L267.959 452.38L267.221 451.704ZM269.669 447.48L270.614 447.807L270.614 447.807L269.669 447.48ZM274.309 441.816C274.309 444.286 273.918 446.505 273.153 448.488L275.018 449.208C275.884 446.967 276.309 444.498 276.309 441.816H274.309ZM273.153 448.488C272.383 450.48 271.303 452.169 269.918 453.569L271.34 454.975C272.932 453.367 274.156 451.44 275.018 449.208L273.153 448.488ZM269.918 453.569C268.534 454.968 266.861 456.062 264.884 456.847L265.622 458.705C267.838 457.826 269.749 456.584 271.34 454.975L269.918 453.569ZM264.888 456.845C262.939 457.61 260.761 458 258.341 458V460C260.978 460 263.408 459.574 265.619 458.707L264.888 456.845ZM258.341 458H245.501V460H258.341V458ZM246.501 459V424.608H244.501V459H246.501ZM245.501 425.608H258.341V423.608H245.501V425.608ZM258.341 425.608C260.758 425.608 262.934 426.005 264.882 426.784L265.625 424.928C263.412 424.043 260.98 423.608 258.341 423.608V425.608ZM264.891 426.788C266.862 427.555 268.532 428.647 269.915 430.06L271.344 428.66C269.751 427.033 267.837 425.789 265.616 424.924L264.891 426.788ZM269.918 430.063C271.303 431.463 272.383 433.152 273.153 435.144L275.018 434.424C274.156 432.192 272.932 430.265 271.34 428.657L269.918 430.063ZM273.153 435.144C273.918 437.127 274.309 439.346 274.309 441.816H276.309C276.309 439.134 275.884 436.665 275.018 434.424L273.153 435.144ZM271.533 441.816C271.533 439.614 271.233 437.613 270.614 435.825L268.724 436.479C269.258 438.019 269.533 439.794 269.533 441.816H271.533ZM270.614 435.825C269.999 434.048 269.118 432.517 267.959 431.252L266.484 432.604C267.437 433.643 268.187 434.928 268.724 436.479L270.614 435.825ZM267.959 431.252C266.798 429.986 265.393 429.022 263.756 428.361L263.007 430.215C264.378 430.77 265.533 431.566 266.484 432.604L267.959 431.252ZM263.756 428.361C262.117 427.698 260.307 427.376 258.341 427.376V429.376C260.087 429.376 261.638 429.662 263.007 430.215L263.756 428.361ZM258.341 427.376H250.157V429.376H258.341V427.376ZM249.157 428.376V455.232H251.157V428.376H249.157ZM250.157 456.232H258.341V454.232H250.157V456.232ZM258.341 456.232C260.307 456.232 262.117 455.91 263.756 455.247L263.007 453.393C261.638 453.946 260.087 454.232 258.341 454.232V456.232ZM263.756 455.247C265.39 454.587 266.793 453.633 267.954 452.385L266.489 451.023C265.537 452.047 264.381 452.837 263.007 453.393L263.756 455.247ZM267.959 452.38C269.118 451.115 269.999 449.584 270.614 447.807L268.724 447.153C268.187 448.704 267.437 449.989 266.484 451.028L267.959 452.38ZM270.614 447.807C271.233 446.019 271.533 444.018 271.533 441.816H269.533C269.533 443.838 269.258 445.613 268.724 447.153L270.614 447.807ZM313.145 454.272L312.434 453.569L312.434 453.569L313.145 454.272ZM307.769 457.776L308.134 458.707L308.138 458.705L307.769 457.776ZM288.017 459H287.017V460H288.017V459ZM288.017 424.608V423.608H287.017V424.608H288.017ZM307.769 425.856L307.398 426.785L307.406 426.788L307.769 425.856ZM313.145 429.36L312.43 430.06L312.434 430.063L313.145 429.36ZM316.601 434.784L317.534 434.424L317.534 434.424L316.601 434.784ZM305.897 429.288L305.522 430.215L305.522 430.215L305.897 429.288ZM292.673 428.376V427.376H291.673V428.376H292.673ZM292.673 455.232H291.673V456.232H292.673V455.232ZM305.897 454.32L305.522 453.393L305.522 453.393L305.897 454.32ZM309.737 451.704L310.469 452.385L310.474 452.38L309.737 451.704ZM312.185 447.48L313.13 447.807L313.13 447.807L312.185 447.48ZM316.825 441.816C316.825 444.286 316.434 446.505 315.668 448.488L317.534 449.208C318.4 446.967 318.825 444.498 318.825 441.816H316.825ZM315.668 448.488C314.898 450.48 313.819 452.169 312.434 453.569L313.856 454.975C315.447 453.367 316.672 451.44 317.534 449.208L315.668 448.488ZM312.434 453.569C311.05 454.968 309.376 456.062 307.4 456.847L308.138 458.705C310.354 457.826 312.264 456.584 313.856 454.975L312.434 453.569ZM307.404 456.845C305.454 457.61 303.276 458 300.857 458V460C303.494 460 305.924 459.574 308.134 458.707L307.404 456.845ZM300.857 458H288.017V460H300.857V458ZM289.017 459V424.608H287.017V459H289.017ZM288.017 425.608H300.857V423.608H288.017V425.608ZM300.857 425.608C303.274 425.608 305.45 426.005 307.398 426.784L308.14 424.928C305.928 424.043 303.496 423.608 300.857 423.608V425.608ZM307.406 426.788C309.378 427.555 311.047 428.647 312.43 430.06L313.86 428.66C312.267 427.033 310.352 425.789 308.132 424.924L307.406 426.788ZM312.434 430.063C313.819 431.463 314.898 433.152 315.668 435.144L317.534 434.424C316.672 432.192 315.447 430.265 313.856 428.657L312.434 430.063ZM315.668 435.144C316.434 437.127 316.825 439.346 316.825 441.816H318.825C318.825 439.134 318.4 436.665 317.534 434.424L315.668 435.144ZM314.049 441.816C314.049 439.614 313.749 437.613 313.13 435.825L311.24 436.479C311.773 438.019 312.049 439.794 312.049 441.816H314.049ZM313.13 435.825C312.515 434.048 311.634 432.517 310.474 431.252L309 432.604C309.952 433.643 310.703 434.928 311.24 436.479L313.13 435.825ZM310.474 431.252C309.314 429.986 307.908 429.022 306.272 428.361L305.522 430.215C306.894 430.77 308.048 431.566 309 432.604L310.474 431.252ZM306.272 428.361C304.633 427.698 302.823 427.376 300.857 427.376V429.376C302.603 429.376 304.153 429.662 305.522 430.215L306.272 428.361ZM300.857 427.376H292.673V429.376H300.857V427.376ZM291.673 428.376V455.232H293.673V428.376H291.673ZM292.673 456.232H300.857V454.232H292.673V456.232ZM300.857 456.232C302.823 456.232 304.633 455.91 306.272 455.247L305.522 453.393C304.153 453.946 302.603 454.232 300.857 454.232V456.232ZM306.272 455.247C307.905 454.587 309.309 453.633 310.469 452.385L309.005 451.023C308.053 452.047 306.897 452.837 305.522 453.393L306.272 455.247ZM310.474 452.38C311.634 451.115 312.515 449.584 313.13 447.807L311.24 447.153C310.703 448.704 309.952 449.989 309 451.028L310.474 452.38ZM313.13 447.807C313.749 446.019 314.049 444.018 314.049 441.816H312.049C312.049 443.838 311.773 445.613 311.24 447.153L313.13 447.807ZM341.57 445.296L340.716 444.776L340.57 445.015V445.296H341.57ZM341.57 459V460H342.57V459H341.57ZM336.914 459H335.914V460H336.914V459ZM336.914 445.296H337.914V445.015L337.768 444.776L336.914 445.296ZM324.314 424.608V423.608H322.534L323.46 425.128L324.314 424.608ZM329.378 424.92L328.723 425.676L328.738 425.689L328.753 425.701L329.378 424.92ZM330.002 425.688L329.125 426.17L329.132 426.183L329.14 426.195L330.002 425.688ZM337.874 439.056L338.763 438.599L338.75 438.573L338.735 438.549L337.874 439.056ZM338.666 440.64L337.765 441.076L337.771 441.087L338.666 440.64ZM339.29 442.104L338.347 442.438L339.29 445.094L340.232 442.438L339.29 442.104ZM339.89 440.64L340.796 441.063L340.801 441.052L339.89 440.64ZM340.634 439.056L339.771 438.55L339.751 438.584L339.734 438.619L340.634 439.056ZM348.482 425.688L349.344 426.194L349.355 426.175L349.365 426.156L348.482 425.688ZM349.082 424.944L349.74 425.697L349.74 425.697L349.082 424.944ZM354.17 424.608L355.024 425.128L355.95 423.608H354.17V424.608ZM340.57 445.296V459H342.57V445.296H340.57ZM341.57 458H336.914V460H341.57V458ZM337.914 459V445.296H335.914V459H337.914ZM337.768 444.776L325.168 424.088L323.46 425.128L336.06 445.816L337.768 444.776ZM324.314 425.608H328.394V423.608H324.314V425.608ZM328.394 425.608C328.645 425.608 328.715 425.669 328.723 425.676L330.033 424.164C329.561 423.755 328.974 423.608 328.394 423.608V425.608ZM328.753 425.701C328.873 425.797 329.001 425.944 329.125 426.17L330.878 425.206C330.65 424.792 330.362 424.427 330.002 424.139L328.753 425.701ZM329.14 426.195L337.012 439.563L338.735 438.549L330.863 425.181L329.14 426.195ZM336.984 439.513C337.269 440.067 337.529 440.588 337.765 441.076L339.566 440.204C339.322 439.7 339.054 439.165 338.763 438.599L336.984 439.513ZM337.771 441.087C337.993 441.531 338.185 441.982 338.347 442.438L340.232 441.77C340.042 441.234 339.818 440.709 339.56 440.193L337.771 441.087ZM340.232 442.438C340.397 441.973 340.585 441.514 340.796 441.063L338.983 440.217C338.746 440.726 338.534 441.243 338.347 441.77L340.232 442.438ZM340.801 441.052C341.021 440.565 341.265 440.046 341.533 439.493L339.734 438.619C339.459 439.186 339.207 439.723 338.978 440.228L340.801 441.052ZM341.496 439.562L349.344 426.194L347.619 425.182L339.771 438.55L341.496 439.562ZM349.365 426.156C349.447 426.003 349.566 425.849 349.74 425.697L348.423 424.191C348.085 424.487 347.805 424.829 347.598 425.22L349.365 426.156ZM349.74 425.697C349.783 425.659 349.863 425.608 350.066 425.608V423.608C349.468 423.608 348.893 423.781 348.423 424.191L349.74 425.697ZM350.066 425.608H354.17V423.608H350.066V425.608ZM353.316 424.088L340.716 444.776L342.424 445.816L355.024 425.128L353.316 424.088Z" fill="white"/>
<path d="M191 407H324" stroke="white" stroke-width="3" stroke-linecap="round" stroke-linejoin="round"/>
</svg>
